<?xml version="1.0" standalone="no"?>
<!DOCTYPE svg PUBLIC "-//W3C//DTD SVG 1.1//EN"
  "http://www.w3.org/Graphics/SVG/1.1/DTD/svg11.dtd">
<svg width="283.46px" height="302.36px" version="1.1"
    xmlns="http://www.w3.org/2000/svg"
    xmlns:xlink="http://www.w3.org/1999/xlink">
<desc>Veusz output document</desc>
<defs>
<clipPath id="c0">
<path d="m0,0l283.46,0l0,302.36l-283.46,0l0,-302.36"/>
</clipPath>
<clipPath id="c1">
<path d="m37.79,7.55l238.11,0l0,76.85l-238.11,0l0,-76.85"/>
</clipPath>
<clipPath id="c2">
<path d="m37.79,95.74l238.11,0l0,76.85l-238.11,0l0,-76.85"/>
</clipPath>
<clipPath id="c3">
<path d="m37.79,183.93l238.11,0l0,76.85l-238.11,0l0,-76.85"/>
</clipPath>
</defs>
<g stroke-linejoin="bevel" stroke-linecap="square" stroke="#000000" fill-rule="evenodd">
<g clip-path="url(#c0)">
<g fill="#ffffff" stroke-width="0.66">
<path d="m37.79,7.55l238.11,0l0,76.85l-238.11,0l0,-76.85"/>
</g>
<g fill="none" stroke-width="0.1">
<path d="m40.4,13.52l1.5,-0.32c0.1,0.25,0.19,0.52,0.26,0.78c0.09,0.39,0.17,0.86,0.22,1.4c0.02,0.27,0.06,0.84,0.11,1.72c0.43,-0.48,0.69,-0.77,0.77,-0.89c0.45,-0.62,0.72,-0.99,0.79,-1.09c0.11,-0.18,0.19,-0.34,0.24,-0.48c0.03,-0.1,0.05,-0.2,0.05,-0.29c0,-0.09,-0.08,-0.19,-0.24,-0.31c-0.16,-0.11,-0.24,-0.25,-0.24,-0.39c0,-0.11,0.04,-0.21,0.13,-0.29c0.08,-0.08,0.19,-0.13,0.31,-0.13c0.14,0,0.27,0.06,0.38,0.18c0.11,0.12,0.16,0.26,0.16,0.44c0,0.17,-0.02,0.34,-0.08,0.51c-0.09,0.26,-0.25,0.58,-0.5,0.96c-0.24,0.38,-0.64,0.89,-1.19,1.53c-0.06,0.08,-0.45,0.48,-1.15,1.21l-0.19,0c-0.08,-2.2,-0.25,-3.57,-0.52,-4.12c-0.08,-0.17,-0.23,-0.26,-0.43,-0.26c-0.08,0,-0.21,0.01,-0.37,0.04l-0.03,-0.18" fill="#000000" stroke="none" fill-opacity="1"/>
<path d="m47.79,13.31l5.63,0l0,0.42l-5.63,0l0,-0.42m0,1.7l5.63,0l0,0.42l-5.63,0l0,-0.42m8.9,-0.59c0,-0.8,0.12,-1.5,0.36,-2.08c0.24,-0.58,0.56,-1.01,0.97,-1.3c0.31,-0.22,0.63,-0.34,0.97,-0.34c0.54,0,1.03,0.27,1.46,0.83c0.53,0.68,0.8,1.61,0.8,2.78c0,0.82,-0.11,1.52,-0.35,2.09c-0.23,0.57,-0.53,0.99,-0.9,1.25c-0.36,0.25,-0.72,0.38,-1.06,0.38c-0.67,0,-1.23,-0.39,-1.68,-1.19c-0.38,-0.67,-0.57,-1.48,-0.57,-2.42m1.02,0.12c0,0.97,0.12,1.77,0.36,2.38c0.19,0.51,0.49,0.77,0.88,0.77c0.18,0,0.38,-0.08,0.58,-0.25c0.2,-0.16,0.35,-0.45,0.46,-0.84c0.16,-0.59,0.24,-1.44,0.24,-2.53c0,-0.8,-0.08,-1.48,-0.25,-2.02c-0.12,-0.4,-0.28,-0.68,-0.48,-0.85c-0.14,-0.11,-0.31,-0.17,-0.51,-0.17c-0.23,0,-0.44,0.1,-0.63,0.31c-0.25,0.28,-0.42,0.74,-0.51,1.36c-0.09,0.62,-0.13,1.23,-0.13,1.83m5.27,2.35c0.16,0,0.3,0.05,0.41,0.17c0.11,0.11,0.16,0.25,0.16,0.4c0,0.16,-0.05,0.29,-0.16,0.41c-0.11,0.11,-0.24,0.17,-0.41,0.17c-0.16,0,-0.29,-0.05,-0.41,-0.17c-0.11,-0.11,-0.16,-0.25,-0.16,-0.41c0,-0.16,0.05,-0.3,0.16,-0.41c0.11,-0.11,0.24,-0.16,0.41,-0.16m1.72,-2.48c0,-0.8,0.12,-1.5,0.36,-2.08c0.24,-0.58,0.56,-1.01,0.97,-1.3c0.31,-0.22,0.63,-0.34,0.97,-0.34c0.54,0,1.03,0.27,1.46,0.83c0.53,0.68,0.8,1.61,0.8,2.78c0,0.82,-0.11,1.52,-0.35,2.09c-0.23,0.57,-0.53,0.99,-0.9,1.25c-0.36,0.25,-0.72,0.38,-1.06,0.38c-0.67,0,-1.23,-0.39,-1.68,-1.19c-0.38,-0.67,-0.57,-1.48,-0.57,-2.42m1.02,0.12c0,0.97,0.12,1.77,0.36,2.38c0.19,0.51,0.49,0.77,0.88,0.77c0.18,0,0.38,-0.08,0.58,-0.25c0.2,-0.16,0.35,-0.45,0.46,-0.84c0.16,-0.59,0.24,-1.44,0.24,-2.53c0,-0.8,-0.08,-1.48,-0.25,-2.02c-0.12,-0.4,-0.28,-0.68,-0.48,-0.85c-0.14,-0.11,-0.31,-0.17,-0.51,-0.17c-0.23,0,-0.44,0.1,-0.63,0.31c-0.25,0.28,-0.42,0.74,-0.51,1.36c-0.09,0.62,-0.13,1.23,-0.13,1.83" fill="#000000" stroke="none" fill-opacity="1"/>
</g>
</g>
<g clip-path="url(#c1)">
<g fill="none" stroke-width="1">
<path d="m40.71,84.4l3.5,0l0,-25.61l-3.5,0l0,25.61m4.66,0l3.5,0l0,-25.61l-3.5,0l0,25.61m4.66,0l3.5,0l0,-25.61l-3.5,0l0,25.61m4.66,0l3.5,0l0,-25.61l-3.5,0l0,25.61m4.66,0l3.5,0l0,-25.61l-3.5,0l0,25.61m4.66,0l3.5,0l0,-25.61l-3.5,0l0,25.61m4.66,0l3.5,0l0,-25.61l-3.5,0l0,25.61m4.66,0l3.5,0l0,-29.88l-3.5,0l0,29.88m4.66,0l3.5,0l0,-29.88l-3.5,0l0,29.88m4.66,0l3.5,0l0,-29.88l-3.5,0l0,29.88m4.66,0l3.5,0l0,-29.88l-3.5,0l0,29.88m4.66,0l3.5,0l0,-34.15l-3.5,0l0,34.15m4.66,0l3.5,0l0,-34.15l-3.5,0l0,34.15m4.66,0l3.5,0l0,-34.15l-3.5,0l0,34.15m4.66,0l3.5,0l0,-34.15l-3.5,0l0,34.15m4.66,0l3.5,0l0,-34.15l-3.5,0l0,34.15m4.66,0l3.5,0l0,-34.15l-3.5,0l0,34.15m4.66,0l3.5,0l0,-38.42l-3.5,0l0,38.42m4.66,0l3.5,0l0,-38.42l-3.5,0l0,38.42m4.66,0l3.5,0l0,-38.42l-3.5,0l0,38.42m4.66,0l3.5,0l0,-38.42l-3.5,0l0,38.42m4.66,0l3.5,0l0,-38.42l-3.5,0l0,38.42m4.66,0l3.5,0l0,-42.69l-3.5,0l0,42.69m4.66,0l3.5,0l0,-42.69l-3.5,0l0,42.69m4.66,0l3.5,0l0,-42.69l-3.5,0l0,42.69m4.66,0l3.5,0l0,-42.69l-3.5,0l0,42.69m4.66,0l3.5,0l0,-42.69l-3.5,0l0,42.69m4.66,0l3.5,0l0,-42.69l-3.5,0l0,42.69m4.66,0l3.5,0l0,-42.69l-3.5,0l0,42.69m4.66,0l3.5,0l0,-46.96l-3.5,0l0,46.96m4.66,0l3.5,0l0,-46.96l-3.5,0l0,46.96m4.66,0l3.5,0l0,-46.96l-3.5,0l0,46.96m4.66,0l3.5,0l0,-46.96l-3.5,0l0,46.96m4.66,0l3.5,0l0,-46.96l-3.5,0l0,46.96m4.66,0l3.5,0l0,-46.96l-3.5,0l0,46.96m4.66,0l3.5,0l0,-46.96l-3.5,0l0,46.96m4.66,0l3.5,0l0,-51.23l-3.5,0l0,51.23m4.66,0l3.5,0l0,-51.23l-3.5,0l0,51.23m4.66,0l3.5,0l0,-51.23l-3.5,0l0,51.23m4.66,0l3.5,0l0,-51.23l-3.5,0l0,51.23m4.66,0l3.5,0l0,-51.23l-3.5,0l0,51.23m4.66,0l3.5,0l0,-51.23l-3.5,0l0,51.23m4.66,0l3.5,0l0,-55.5l-3.5,0l0,55.5m4.66,0l3.5,0l0,-55.5l-3.5,0l0,55.5m4.66,0l3.5,0l0,-55.5l-3.5,0l0,55.5m4.66,0l3.5,0l0,-55.5l-3.5,0l0,55.5m4.66,0l3.5,0l0,-55.5l-3.5,0l0,55.5m4.66,0l3.5,0l0,-55.5l-3.5,0l0,55.5m4.66,0l3.5,0l0,-59.77l-3.5,0l0,59.77m4.66,0l3.5,0l0,-59.77l-3.5,0l0,59.77"/>
</g>
</g>
<g clip-path="url(#c0)">
<g fill="none" stroke-linecap="butt" stroke-width="0.66">
<path d="M37.79,84.4l0,-76.85"/>
<path d="M37.79,84.4l-4,0M37.79,63.06l-4,0M37.79,41.71l-4,0M37.79,20.36l-4,0"/>
</g>
<g fill="none" stroke-width="0.1">
<path d="m26.12,84.65c0,-0.8,0.12,-1.5,0.36,-2.08c0.24,-0.58,0.56,-1.01,0.97,-1.3c0.31,-0.22,0.63,-0.34,0.97,-0.34c0.54,0,1.03,0.27,1.46,0.83c0.53,0.68,0.8,1.61,0.8,2.78c0,0.82,-0.11,1.52,-0.35,2.09c-0.23,0.57,-0.53,0.99,-0.9,1.25c-0.36,0.25,-0.72,0.38,-1.06,0.38c-0.67,0,-1.23,-0.39,-1.68,-1.19c-0.38,-0.67,-0.57,-1.48,-0.57,-2.42m1.02,0.12c0,0.97,0.12,1.77,0.36,2.38c0.19,0.51,0.49,0.77,0.88,0.77c0.18,0,0.38,-0.08,0.58,-0.25c0.2,-0.16,0.35,-0.45,0.46,-0.84c0.16,-0.59,0.24,-1.44,0.24,-2.53c0,-0.8,-0.08,-1.48,-0.25,-2.02c-0.12,-0.4,-0.28,-0.68,-0.48,-0.85c-0.14,-0.11,-0.31,-0.17,-0.51,-0.17c-0.23,0,-0.44,0.1,-0.63,0.31c-0.25,0.28,-0.42,0.74,-0.51,1.36c-0.09,0.62,-0.13,1.23,-0.13,1.83" fill="#000000" stroke="none" fill-opacity="1"/>
<path d="m30.38,59.72l-0.4,0.88l-2.13,0l-0.46,0.95c0.92,0.13,1.65,0.47,2.19,1.02c0.46,0.47,0.69,1.03,0.69,1.67c0,0.37,-0.07,0.71,-0.22,1.03c-0.15,0.31,-0.34,0.58,-0.57,0.81c-0.22,0.22,-0.48,0.4,-0.76,0.53c-0.4,0.19,-0.81,0.28,-1.23,0.28c-0.42,0,-0.73,-0.07,-0.92,-0.21c-0.19,-0.14,-0.28,-0.3,-0.28,-0.47c0,-0.09,0.04,-0.18,0.12,-0.25c0.08,-0.07,0.18,-0.11,0.3,-0.11c0.08,0,0.16,0.01,0.23,0.04c0.06,0.02,0.18,0.09,0.34,0.21c0.26,0.18,0.52,0.27,0.79,0.27c0.4,0,0.76,-0.15,1.07,-0.46c0.3,-0.3,0.46,-0.68,0.46,-1.12c0,-0.42,-0.13,-0.82,-0.41,-1.19c-0.27,-0.37,-0.65,-0.65,-1.13,-0.85c-0.37,-0.15,-0.89,-0.24,-1.55,-0.27l1.35,-2.75l2.53,0" fill="#000000" stroke="none" fill-opacity="1"/>
<path d="m21.64,39.07l1.72,-0.84l0.17,0l0,5.98c0,0.39,0.01,0.64,0.05,0.74c0.03,0.09,0.1,0.17,0.2,0.22c0.1,0.05,0.31,0.08,0.63,0.08l0,0.19l-2.66,0l0,-0.19c0.33,0,0.55,-0.03,0.64,-0.08c0.09,-0.05,0.16,-0.11,0.2,-0.2c0.03,-0.08,0.05,-0.34,0.05,-0.76l0,-3.82c0,-0.51,-0.01,-0.84,-0.05,-0.99c-0.02,-0.11,-0.06,-0.19,-0.13,-0.24c-0.06,-0.05,-0.14,-0.07,-0.23,-0.07c-0.12,0,-0.3,0.05,-0.53,0.16l-0.07,-0.16m4.48,2.88c0,-0.8,0.12,-1.5,0.36,-2.08c0.24,-0.58,0.56,-1.01,0.97,-1.3c0.31,-0.22,0.63,-0.34,0.97,-0.34c0.54,0,1.03,0.27,1.46,0.83c0.53,0.68,0.8,1.61,0.8,2.78c0,0.82,-0.11,1.52,-0.35,2.09c-0.23,0.57,-0.53,0.99,-0.9,1.25c-0.36,0.25,-0.72,0.38,-1.06,0.38c-0.67,0,-1.23,-0.39,-1.68,-1.19c-0.38,-0.67,-0.57,-1.48,-0.57,-2.42m1.02,0.12c0,0.97,0.12,1.77,0.36,2.38c0.19,0.51,0.49,0.77,0.88,0.77c0.18,0,0.38,-0.08,0.58,-0.25c0.2,-0.16,0.35,-0.45,0.46,-0.84c0.16,-0.59,0.24,-1.44,0.24,-2.53c0,-0.8,-0.08,-1.48,-0.25,-2.02c-0.12,-0.4,-0.28,-0.68,-0.48,-0.85c-0.14,-0.11,-0.31,-0.17,-0.51,-0.17c-0.23,0,-0.44,0.1,-0.63,0.31c-0.25,0.28,-0.42,0.74,-0.51,1.36c-0.09,0.62,-0.13,1.23,-0.13,1.83" fill="#000000" stroke="none" fill-opacity="1"/>
<path d="m21.64,17.72l1.72,-0.84l0.17,0l0,5.98c0,0.39,0.01,0.64,0.05,0.74c0.03,0.09,0.1,0.17,0.2,0.22c0.1,0.05,0.31,0.08,0.63,0.08l0,0.19l-2.66,0l0,-0.19c0.33,0,0.55,-0.03,0.64,-0.08c0.09,-0.05,0.16,-0.11,0.2,-0.2c0.03,-0.08,0.05,-0.34,0.05,-0.76l0,-3.82c0,-0.51,-0.01,-0.84,-0.05,-0.99c-0.02,-0.11,-0.06,-0.19,-0.13,-0.24c-0.06,-0.05,-0.14,-0.07,-0.23,-0.07c-0.12,0,-0.3,0.05,-0.53,0.16l-0.07,-0.16m8.74,-0.69l-0.4,0.88l-2.13,0l-0.46,0.95c0.92,0.13,1.65,0.47,2.19,1.02c0.46,0.47,0.69,1.03,0.69,1.67c0,0.37,-0.07,0.71,-0.22,1.03c-0.15,0.31,-0.34,0.58,-0.57,0.81c-0.22,0.22,-0.48,0.4,-0.76,0.53c-0.4,0.19,-0.81,0.28,-1.23,0.28c-0.42,0,-0.73,-0.07,-0.92,-0.21c-0.19,-0.14,-0.28,-0.3,-0.28,-0.47c0,-0.09,0.04,-0.18,0.12,-0.25c0.08,-0.07,0.18,-0.11,0.3,-0.11c0.08,0,0.16,0.01,0.23,0.04c0.06,0.02,0.18,0.09,0.34,0.21c0.26,0.18,0.52,0.27,0.79,0.27c0.4,0,0.76,-0.15,1.07,-0.46c0.3,-0.3,0.46,-0.68,0.46,-1.12c0,-0.42,-0.13,-0.82,-0.41,-1.19c-0.27,-0.37,-0.65,-0.65,-1.13,-0.85c-0.37,-0.15,-0.89,-0.24,-1.55,-0.27l1.35,-2.75l2.53,0" fill="#000000" stroke="none" fill-opacity="1"/>
</g>
<g fill="none" stroke-linecap="butt" stroke-width="0.66">
<path d="M37.79,84.4l238.11,0"/>
<path d="M42.46,84.4l0,4M84.48,84.4l0,4M131.17,84.4l0,4M177.86,84.4l0,4M224.54,84.4l0,4M271.23,84.4l0,4"/>
</g>
<g fill="#ffffff" stroke-width="0.66">
<path d="m37.79,95.74l238.11,0l0,76.85l-238.11,0l0,-76.85"/>
</g>
<g fill="none" stroke-width="0.1">
<g transform="matrix(0 -1 1 0 13.42 219.34)">
<path d="m-0.15,-7.94l2.15,0l4.85,5.95l0,-4.58c0,-0.48,-0.05,-0.79,-0.16,-0.91c-0.14,-0.16,-0.37,-0.24,-0.68,-0.24l-0.27,0l0,-0.21l2.76,0l0,0.21l-0.28,0c-0.33,0,-0.57,0.1,-0.71,0.3c-0.08,0.12,-0.12,0.4,-0.12,0.85l0,6.69l-0.21,0l-5.23,-6.4l0,4.89c0,0.48,0.05,0.79,0.15,0.91c0.14,0.16,0.37,0.24,0.68,0.24l0.28,0l0,0.21l-2.76,0l0,-0.21l0.27,0c0.34,0,0.58,-0.1,0.72,-0.3c0.08,-0.12,0.12,-0.4,0.12,-0.85l0,-5.52c-0.23,-0.26,-0.4,-0.44,-0.52,-0.53c-0.11,-0.08,-0.29,-0.16,-0.52,-0.24c-0.11,-0.03,-0.28,-0.05,-0.51,-0.05l0,-0.21m13.9,2.57l0,3.25c0,0.62,0.01,1,0.04,1.13c0.02,0.13,0.07,0.23,0.14,0.29c0.06,0.05,0.13,0.08,0.22,0.08c0.12,0,0.25,-0.03,0.4,-0.1l0.08,0.2l-1.6,0.66l-0.26,0l0,-1.13c-0.46,0.5,-0.81,0.81,-1.05,0.94c-0.24,0.12,-0.49,0.19,-0.76,0.19c-0.3,0,-0.56,-0.08,-0.78,-0.26c-0.22,-0.17,-0.37,-0.39,-0.46,-0.67c-0.08,-0.27,-0.12,-0.66,-0.12,-1.16l0,-2.39c0,-0.25,-0.02,-0.42,-0.08,-0.52c-0.05,-0.09,-0.13,-0.17,-0.24,-0.22c-0.1,-0.05,-0.3,-0.07,-0.58,-0.07l0,-0.21l1.87,0l0,3.59c0,0.5,0.08,0.82,0.26,0.98c0.17,0.15,0.38,0.23,0.62,0.23c0.16,0,0.35,-0.05,0.57,-0.15c0.21,-0.1,0.46,-0.3,0.75,-0.6l0,-3.04c0,-0.3,-0.05,-0.51,-0.16,-0.61c-0.11,-0.1,-0.34,-0.16,-0.69,-0.17l0,-0.21l1.82,0m2.88,0.98c0.39,-0.39,0.62,-0.61,0.69,-0.67c0.17,-0.14,0.36,-0.26,0.56,-0.34c0.2,-0.08,0.4,-0.12,0.6,-0.12c0.33,0,0.62,0.09,0.86,0.29c0.24,0.19,0.4,0.47,0.48,0.84c0.4,-0.46,0.74,-0.77,1.01,-0.92c0.27,-0.14,0.56,-0.21,0.85,-0.21c0.28,0,0.53,0.07,0.75,0.21c0.22,0.14,0.39,0.38,0.52,0.71c0.08,0.22,0.12,0.58,0.12,1.06l0,2.3c0,0.33,0.02,0.56,0.07,0.69c0.03,0.08,0.11,0.15,0.21,0.22c0.1,0.06,0.27,0.09,0.51,0.09l0,0.21l-2.64,0l0,-0.21l0.11,0c0.23,0,0.41,-0.04,0.53,-0.13c0.09,-0.06,0.15,-0.16,0.19,-0.3c0.01,-0.06,0.02,-0.25,0.02,-0.56l0,-2.3c0,-0.43,-0.05,-0.74,-0.15,-0.92c-0.15,-0.25,-0.39,-0.37,-0.73,-0.37c-0.2,0,-0.41,0.05,-0.62,0.15c-0.2,0.1,-0.46,0.29,-0.75,0.57l-0.01,0.06l0.01,0.25l0,2.56c0,0.36,0.02,0.59,0.06,0.68c0.04,0.09,0.11,0.16,0.23,0.22c0.11,0.06,0.3,0.09,0.58,0.09l0,0.21l-2.71,0l0,-0.21c0.29,0,0.5,-0.03,0.61,-0.1c0.11,-0.07,0.18,-0.17,0.23,-0.31c0.01,-0.06,0.02,-0.25,0.02,-0.57l0,-2.3c0,-0.43,-0.06,-0.75,-0.19,-0.94c-0.17,-0.25,-0.41,-0.37,-0.72,-0.37c-0.21,0,-0.41,0.05,-0.62,0.17c-0.32,0.17,-0.57,0.36,-0.75,0.57l0,2.87c0,0.35,0.02,0.57,0.07,0.68c0.04,0.1,0.12,0.18,0.21,0.23c0.09,0.05,0.29,0.07,0.58,0.07l0,0.21l-2.65,0l0,-0.21c0.24,0,0.41,-0.02,0.51,-0.07c0.09,-0.05,0.17,-0.13,0.22,-0.25c0.05,-0.11,0.07,-0.33,0.07,-0.67l0,-2.05c0,-0.58,-0.01,-0.97,-0.05,-1.14c-0.02,-0.12,-0.07,-0.21,-0.12,-0.26c-0.05,-0.04,-0.13,-0.07,-0.24,-0.07c-0.1,0,-0.24,0.02,-0.39,0.08l-0.08,-0.21l1.61,-0.65l0.25,0l0,1.14m9.2,-0.05c0.51,-0.72,1.08,-1.08,1.68,-1.08c0.55,0,1.03,0.23,1.44,0.7c0.41,0.47,0.61,1.11,0.61,1.93c0,0.95,-0.31,1.72,-0.95,2.3c-0.54,0.5,-1.14,0.75,-1.81,0.75c-0.31,0,-0.62,-0.05,-0.95,-0.17c-0.32,-0.11,-0.65,-0.28,-0.98,-0.5l0,-5.56c0,-0.6,-0.01,-0.98,-0.04,-1.12c-0.02,-0.14,-0.07,-0.23,-0.13,-0.28c-0.06,-0.05,-0.14,-0.07,-0.23,-0.07c-0.1,0,-0.24,0.03,-0.4,0.09l-0.08,-0.2l1.61,-0.65l0.26,0l0,3.89m0,0.37l0,3.21c0.2,0.19,0.4,0.34,0.61,0.44c0.21,0.09,0.43,0.14,0.65,0.14c0.35,0,0.68,-0.19,0.99,-0.58c0.3,-0.39,0.46,-0.95,0.46,-1.7c0,-0.68,-0.15,-1.21,-0.46,-1.58c-0.3,-0.36,-0.65,-0.55,-1.04,-0.55c-0.2,0,-0.41,0.05,-0.62,0.15c-0.15,0.07,-0.35,0.23,-0.59,0.46m5.43,0.72c0,0.79,0.18,1.42,0.57,1.87c0.39,0.45,0.84,0.67,1.37,0.67c0.35,0,0.65,-0.09,0.91,-0.29c0.25,-0.19,0.47,-0.52,0.65,-0.99l0.18,0.11c-0.08,0.53,-0.31,1.02,-0.71,1.46c-0.39,0.43,-0.88,0.65,-1.48,0.65c-0.64,0,-1.19,-0.25,-1.65,-0.75c-0.45,-0.5,-0.68,-1.17,-0.68,-2.02c0,-0.91,0.23,-1.63,0.7,-2.14c0.47,-0.51,1.06,-0.77,1.77,-0.77c0.6,0,1.09,0.19,1.48,0.59c0.38,0.39,0.57,0.92,0.57,1.59l-3.7,0m0,-0.34l2.48,0c-0.01,-0.34,-0.06,-0.58,-0.12,-0.72c-0.09,-0.21,-0.24,-0.39,-0.43,-0.51c-0.19,-0.12,-0.39,-0.18,-0.6,-0.18c-0.32,0,-0.61,0.12,-0.86,0.37c-0.25,0.25,-0.4,0.6,-0.44,1.05m5.99,-1.83l0,1.2c0.44,-0.8,0.9,-1.2,1.38,-1.2c0.21,0,0.39,0.06,0.53,0.19c0.14,0.13,0.21,0.28,0.21,0.45c0,0.15,-0.05,0.28,-0.15,0.38c-0.1,0.1,-0.22,0.15,-0.36,0.15c-0.13,0,-0.28,-0.06,-0.45,-0.2c-0.16,-0.13,-0.29,-0.2,-0.37,-0.2c-0.06,0,-0.14,0.03,-0.22,0.11c-0.17,0.16,-0.35,0.42,-0.54,0.79l0,2.57c0,0.29,0.03,0.52,0.11,0.67c0.05,0.1,0.14,0.19,0.27,0.26c0.12,0.07,0.31,0.1,0.55,0.1l0,0.21l-2.74,0l0,-0.21c0.27,0,0.47,-0.04,0.6,-0.12c0.09,-0.06,0.16,-0.16,0.2,-0.29c0.01,-0.06,0.02,-0.25,0.02,-0.56l0,-2.07c0,-0.62,-0.01,-0.99,-0.03,-1.11c-0.02,-0.11,-0.07,-0.2,-0.14,-0.26c-0.06,-0.05,-0.15,-0.08,-0.25,-0.08c-0.12,0,-0.25,0.02,-0.41,0.08l-0.05,-0.21l1.62,-0.65l0.24,0m8.05,0c0.81,0,1.46,0.3,1.95,0.92c0.41,0.52,0.62,1.13,0.62,1.81c0,0.48,-0.11,0.96,-0.34,1.45c-0.23,0.49,-0.54,0.86,-0.95,1.11c-0.4,0.25,-0.85,0.37,-1.35,0.37c-0.8,0,-1.45,-0.32,-1.92,-0.96c-0.4,-0.54,-0.6,-1.15,-0.6,-1.82c0,-0.49,0.12,-0.98,0.36,-1.46c0.24,-0.48,0.56,-0.84,0.96,-1.07c0.39,-0.23,0.82,-0.34,1.26,-0.34m-0.18,0.37c-0.2,0,-0.41,0.06,-0.62,0.18c-0.2,0.12,-0.37,0.33,-0.5,0.64c-0.12,0.3,-0.19,0.7,-0.19,1.18c0,0.78,0.15,1.45,0.46,2.02c0.31,0.56,0.72,0.85,1.22,0.85c0.37,0,0.69,-0.15,0.93,-0.46c0.24,-0.31,0.36,-0.85,0.36,-1.61c0,-0.95,-0.2,-1.7,-0.61,-2.25c-0.27,-0.37,-0.63,-0.56,-1.06,-0.56m5.65,0.2l0,3.52c0,0.5,0.05,0.81,0.16,0.95c0.14,0.17,0.33,0.25,0.57,0.25l0.48,0l0,0.21l-3.2,0l0,-0.21l0.24,0c0.15,0,0.29,-0.03,0.42,-0.11c0.12,-0.07,0.21,-0.18,0.26,-0.31c0.04,-0.13,0.07,-0.39,0.07,-0.77l0,-3.52l-1.04,0l0,-0.42l1.04,0l0,-0.35c0,-0.53,0.08,-0.98,0.25,-1.35c0.17,-0.37,0.43,-0.67,0.78,-0.89c0.35,-0.22,0.75,-0.34,1.19,-0.34c0.41,0,0.78,0.13,1.13,0.39c0.22,0.17,0.34,0.37,0.34,0.59c0,0.11,-0.05,0.22,-0.15,0.33c-0.1,0.1,-0.21,0.15,-0.32,0.15c-0.08,0,-0.18,-0.03,-0.28,-0.09c-0.09,-0.06,-0.22,-0.2,-0.36,-0.41c-0.14,-0.21,-0.27,-0.35,-0.39,-0.43c-0.12,-0.07,-0.25,-0.11,-0.4,-0.11c-0.17,0,-0.33,0.04,-0.45,0.14c-0.12,0.09,-0.21,0.24,-0.26,0.44c-0.05,0.2,-0.08,0.71,-0.08,1.55l0,0.38l1.38,0l0,0.42l-1.38,0m6.26,-3.38c0.16,0,0.3,0.05,0.41,0.17c0.11,0.11,0.17,0.25,0.17,0.41c0,0.16,-0.05,0.3,-0.17,0.42c-0.11,0.11,-0.25,0.17,-0.41,0.17c-0.16,0,-0.3,-0.05,-0.42,-0.17c-0.11,-0.11,-0.17,-0.25,-0.17,-0.42c0,-0.16,0.05,-0.3,0.17,-0.41c0.11,-0.11,0.25,-0.17,0.42,-0.17m0.48,2.8l0,4.31c0,0.33,0.02,0.55,0.07,0.67c0.04,0.11,0.12,0.19,0.21,0.24c0.09,0.05,0.27,0.08,0.52,0.08l0,0.21l-2.6,0l0,-0.21c0.26,0,0.43,-0.02,0.52,-0.07c0.08,-0.05,0.16,-0.13,0.21,-0.25c0.05,-0.11,0.07,-0.34,0.07,-0.67l0,-2.06c0,-0.58,-0.01,-0.95,-0.05,-1.13c-0.02,-0.12,-0.07,-0.21,-0.12,-0.26c-0.05,-0.04,-0.13,-0.07,-0.23,-0.07c-0.1,0,-0.24,0.02,-0.39,0.08l-0.08,-0.21l1.61,-0.65l0.25,0m3.04,-1.6l0,1.76l1.25,0l0,0.4l-1.25,0l0,3.48c0,0.34,0.04,0.58,0.14,0.7c0.09,0.12,0.22,0.18,0.38,0.18c0.12,0,0.25,-0.04,0.37,-0.12c0.12,-0.08,0.21,-0.19,0.28,-0.35l0.22,0c-0.13,0.38,-0.32,0.67,-0.57,0.86c-0.25,0.19,-0.5,0.28,-0.77,0.28c-0.18,0,-0.35,-0.04,-0.52,-0.14c-0.17,-0.09,-0.29,-0.24,-0.38,-0.42c-0.08,-0.18,-0.12,-0.47,-0.12,-0.85l0,-3.6l-0.85,0l0,-0.19c0.21,-0.08,0.43,-0.23,0.65,-0.43c0.22,-0.2,0.42,-0.44,0.6,-0.72c0.09,-0.14,0.21,-0.41,0.37,-0.81l0.18,0m2.67,3.78c0,0.79,0.18,1.42,0.57,1.87c0.39,0.45,0.84,0.67,1.37,0.67c0.35,0,0.65,-0.09,0.91,-0.29c0.25,-0.19,0.47,-0.52,0.65,-0.99l0.18,0.11c-0.08,0.53,-0.31,1.02,-0.71,1.46c-0.39,0.43,-0.88,0.65,-1.48,0.65c-0.64,0,-1.19,-0.25,-1.65,-0.75c-0.45,-0.5,-0.68,-1.17,-0.68,-2.02c0,-0.91,0.23,-1.63,0.7,-2.14c0.47,-0.51,1.06,-0.77,1.77,-0.77c0.6,0,1.09,0.19,1.48,0.59c0.38,0.39,0.57,0.92,0.57,1.59l-3.7,0m0,-0.34l2.48,0c-0.01,-0.34,-0.06,-0.58,-0.12,-0.72c-0.09,-0.21,-0.24,-0.39,-0.43,-0.51c-0.19,-0.12,-0.39,-0.18,-0.6,-0.18c-0.32,0,-0.61,0.12,-0.86,0.37c-0.25,0.25,-0.4,0.6,-0.44,1.05m5.99,-1.83l0,1.2c0.44,-0.8,0.9,-1.2,1.38,-1.2c0.21,0,0.39,0.06,0.53,0.19c0.14,0.13,0.21,0.28,0.21,0.45c0,0.15,-0.05,0.28,-0.15,0.38c-0.1,0.1,-0.22,0.15,-0.36,0.15c-0.13,0,-0.28,-0.06,-0.45,-0.2c-0.16,-0.13,-0.29,-0.2,-0.37,-0.2c-0.06,0,-0.14,0.03,-0.22,0.11c-0.17,0.16,-0.35,0.42,-0.54,0.79l0,2.57c0,0.29,0.03,0.52,0.11,0.67c0.05,0.1,0.14,0.19,0.27,0.26c0.12,0.07,0.31,0.1,0.55,0.1l0,0.21l-2.74,0l0,-0.21c0.27,0,0.47,-0.04,0.6,-0.12c0.09,-0.06,0.16,-0.16,0.2,-0.29c0.01,-0.06,0.02,-0.25,0.02,-0.56l0,-2.07c0,-0.62,-0.01,-0.99,-0.03,-1.11c-0.02,-0.11,-0.07,-0.2,-0.14,-0.26c-0.06,-0.05,-0.15,-0.08,-0.25,-0.08c-0.12,0,-0.25,0.02,-0.41,0.08l-0.05,-0.21l1.62,-0.65l0.24,0m5.46,4.75c-0.55,0.42,-0.89,0.67,-1.03,0.73c-0.21,0.09,-0.43,0.14,-0.67,0.14c-0.37,0,-0.67,-0.12,-0.91,-0.38c-0.24,-0.25,-0.36,-0.58,-0.36,-1c0,-0.26,0.05,-0.48,0.17,-0.67c0.16,-0.26,0.43,-0.51,0.83,-0.75c0.39,-0.23,1.05,-0.51,1.97,-0.85l0,-0.21c0,-0.53,-0.08,-0.9,-0.25,-1.1c-0.16,-0.19,-0.41,-0.29,-0.74,-0.29c-0.24,0,-0.44,0.06,-0.58,0.2c-0.14,0.13,-0.22,0.28,-0.22,0.45l0.01,0.34c0,0.17,-0.04,0.31,-0.13,0.41c-0.09,0.09,-0.21,0.14,-0.36,0.14c-0.14,0,-0.26,-0.05,-0.35,-0.15c-0.09,-0.1,-0.13,-0.24,-0.13,-0.41c0,-0.33,0.17,-0.64,0.51,-0.92c0.34,-0.28,0.82,-0.42,1.44,-0.42c0.47,0,0.86,0.07,1.17,0.23c0.23,0.12,0.4,0.31,0.51,0.56c0.06,0.16,0.1,0.51,0.1,1.03l0,1.82c0,0.51,0,0.82,0.02,0.94c0.01,0.11,0.05,0.19,0.09,0.23c0.04,0.03,0.09,0.05,0.15,0.05c0.06,0,0.11,-0.01,0.16,-0.04c0.08,-0.05,0.24,-0.19,0.47,-0.42l0,0.32c-0.43,0.58,-0.85,0.87,-1.25,0.87c-0.19,0,-0.34,-0.06,-0.45,-0.2c-0.11,-0.13,-0.17,-0.35,-0.17,-0.67m0,-0.38l0,-2.04c-0.58,0.23,-0.97,0.4,-1.14,0.49c-0.3,0.17,-0.52,0.35,-0.66,0.53c-0.13,0.18,-0.19,0.39,-0.19,0.61c0,0.28,0.08,0.51,0.25,0.7c0.16,0.18,0.36,0.27,0.57,0.27c0.29,0,0.68,-0.19,1.17,-0.58m3.84,-5.97l0,1.76l1.25,0l0,0.4l-1.25,0l0,3.48c0,0.34,0.04,0.58,0.14,0.7c0.09,0.12,0.22,0.18,0.38,0.18c0.12,0,0.25,-0.04,0.37,-0.12c0.12,-0.08,0.21,-0.19,0.28,-0.35l0.22,0c-0.13,0.38,-0.32,0.67,-0.57,0.86c-0.25,0.19,-0.5,0.28,-0.77,0.28c-0.18,0,-0.35,-0.04,-0.52,-0.14c-0.17,-0.09,-0.29,-0.24,-0.38,-0.42c-0.08,-0.18,-0.12,-0.47,-0.12,-0.85l0,-3.6l-0.85,0l0,-0.19c0.21,-0.08,0.43,-0.23,0.65,-0.43c0.22,-0.2,0.42,-0.44,0.6,-0.72c0.09,-0.14,0.21,-0.41,0.37,-0.81l0.18,0m3.13,-1.2c0.16,0,0.3,0.05,0.41,0.17c0.11,0.11,0.17,0.25,0.17,0.41c0,0.16,-0.05,0.3,-0.17,0.42c-0.11,0.11,-0.25,0.17,-0.41,0.17c-0.16,0,-0.3,-0.05,-0.42,-0.17c-0.11,-0.11,-0.17,-0.25,-0.17,-0.42c0,-0.16,0.05,-0.3,0.17,-0.41c0.11,-0.11,0.25,-0.17,0.42,-0.17m0.48,2.8l0,4.31c0,0.33,0.02,0.55,0.07,0.67c0.04,0.11,0.12,0.19,0.21,0.24c0.09,0.05,0.27,0.08,0.52,0.08l0,0.21l-2.6,0l0,-0.21c0.26,0,0.43,-0.02,0.52,-0.07c0.08,-0.05,0.16,-0.13,0.21,-0.25c0.05,-0.11,0.07,-0.34,0.07,-0.67l0,-2.06c0,-0.58,-0.01,-0.95,-0.05,-1.13c-0.02,-0.12,-0.07,-0.21,-0.12,-0.26c-0.05,-0.04,-0.13,-0.07,-0.23,-0.07c-0.1,0,-0.24,0.02,-0.39,0.08l-0.08,-0.21l1.61,-0.65l0.25,0m4.1,0c0.81,0,1.46,0.3,1.95,0.92c0.41,0.52,0.62,1.13,0.62,1.81c0,0.48,-0.11,0.96,-0.34,1.45c-0.23,0.49,-0.54,0.86,-0.95,1.11c-0.4,0.25,-0.85,0.37,-1.35,0.37c-0.8,0,-1.45,-0.32,-1.92,-0.96c-0.4,-0.54,-0.6,-1.15,-0.6,-1.82c0,-0.49,0.12,-0.98,0.36,-1.46c0.24,-0.48,0.56,-0.84,0.96,-1.07c0.39,-0.23,0.82,-0.34,1.26,-0.34m-0.18,0.37c-0.2,0,-0.41,0.06,-0.62,0.18c-0.2,0.12,-0.37,0.33,-0.5,0.64c-0.12,0.3,-0.19,0.7,-0.19,1.18c0,0.78,0.15,1.45,0.46,2.02c0.31,0.56,0.72,0.85,1.22,0.85c0.37,0,0.69,-0.15,0.93,-0.46c0.24,-0.31,0.36,-0.85,0.36,-1.61c0,-0.95,-0.2,-1.7,-0.61,-2.25c-0.27,-0.37,-0.63,-0.56,-1.06,-0.56m5.12,0.75c0.62,-0.75,1.22,-1.13,1.8,-1.13c0.29,0,0.54,0.07,0.75,0.21c0.21,0.14,0.37,0.38,0.5,0.72c0.08,0.23,0.12,0.59,0.12,1.07l0,2.29c0,0.33,0.02,0.56,0.08,0.69c0.04,0.09,0.11,0.17,0.2,0.22c0.09,0.05,0.27,0.08,0.52,0.08l0,0.21l-2.65,0l0,-0.21l0.11,0c0.25,0,0.42,-0.03,0.52,-0.11c0.09,-0.07,0.16,-0.18,0.2,-0.33c0.01,-0.05,0.02,-0.24,0.02,-0.55l0,-2.19c0,-0.48,-0.06,-0.84,-0.19,-1.06c-0.12,-0.22,-0.34,-0.33,-0.64,-0.33c-0.46,0,-0.92,0.25,-1.38,0.76l0,2.83c0,0.36,0.02,0.58,0.06,0.67c0.05,0.11,0.12,0.19,0.22,0.24c0.09,0.05,0.29,0.07,0.58,0.07l0,0.21l-2.65,0l0,-0.21l0.11,0c0.27,0,0.45,-0.06,0.55,-0.2c0.09,-0.13,0.14,-0.4,0.14,-0.79l0,-1.99c0,-0.64,-0.01,-1.03,-0.04,-1.17c-0.02,-0.14,-0.07,-0.23,-0.13,-0.28c-0.06,-0.05,-0.14,-0.07,-0.24,-0.07c-0.1,0,-0.24,0.02,-0.39,0.08l-0.08,-0.21l1.61,-0.65l0.25,0l0,1.13m7.9,-1.13l0,1.82l-0.19,0c-0.14,-0.57,-0.33,-0.96,-0.57,-1.17c-0.23,-0.2,-0.52,-0.31,-0.88,-0.31c-0.27,0,-0.49,0.07,-0.66,0.21c-0.16,0.14,-0.25,0.3,-0.25,0.48c0,0.21,0.06,0.4,0.18,0.56c0.12,0.16,0.36,0.33,0.73,0.5l0.85,0.41c0.79,0.38,1.18,0.89,1.18,1.52c0,0.48,-0.18,0.88,-0.55,1.18c-0.36,0.29,-0.78,0.44,-1.23,0.44c-0.32,0,-0.7,-0.05,-1.12,-0.17c-0.12,-0.03,-0.23,-0.05,-0.31,-0.05c-0.08,0,-0.15,0.05,-0.21,0.15l-0.19,0l0,-1.91l0.19,0c0.1,0.54,0.31,0.95,0.62,1.23c0.3,0.27,0.65,0.41,1.03,0.41c0.26,0,0.48,-0.07,0.65,-0.23c0.16,-0.15,0.25,-0.34,0.25,-0.57c0,-0.26,-0.09,-0.49,-0.28,-0.67c-0.18,-0.18,-0.56,-0.41,-1.13,-0.69c-0.56,-0.28,-0.93,-0.53,-1.11,-0.76c-0.17,-0.22,-0.26,-0.5,-0.26,-0.84c0,-0.44,0.15,-0.8,0.45,-1.1c0.3,-0.29,0.69,-0.44,1.17,-0.44c0.21,0,0.46,0.04,0.76,0.13c0.19,0.05,0.33,0.08,0.39,0.08c0.06,0,0.11,-0.01,0.14,-0.04c0.03,-0.02,0.07,-0.08,0.12,-0.18l0.19,0m5.56,-2.8c0.16,0,0.3,0.05,0.41,0.17c0.11,0.11,0.17,0.25,0.17,0.41c0,0.16,-0.05,0.3,-0.17,0.42c-0.11,0.11,-0.25,0.17,-0.41,0.17c-0.16,0,-0.3,-0.05,-0.42,-0.17c-0.11,-0.11,-0.17,-0.25,-0.17,-0.42c0,-0.16,0.05,-0.3,0.17,-0.41c0.11,-0.11,0.25,-0.17,0.42,-0.17m0.48,2.8l0,4.31c0,0.33,0.02,0.55,0.07,0.67c0.04,0.11,0.12,0.19,0.21,0.24c0.09,0.05,0.27,0.08,0.52,0.08l0,0.21l-2.6,0l0,-0.21c0.26,0,0.43,-0.02,0.52,-0.07c0.08,-0.05,0.16,-0.13,0.21,-0.25c0.05,-0.11,0.07,-0.34,0.07,-0.67l0,-2.06c0,-0.58,-0.01,-0.95,-0.05,-1.13c-0.02,-0.12,-0.07,-0.21,-0.12,-0.26c-0.05,-0.04,-0.13,-0.07,-0.23,-0.07c-0.1,0,-0.24,0.02,-0.39,0.08l-0.08,-0.21l1.61,-0.65l0.25,0m3.04,1.13c0.62,-0.75,1.22,-1.13,1.8,-1.13c0.29,0,0.54,0.07,0.75,0.21c0.21,0.14,0.37,0.38,0.5,0.72c0.08,0.23,0.12,0.59,0.12,1.07l0,2.29c0,0.33,0.02,0.56,0.08,0.69c0.04,0.09,0.11,0.17,0.2,0.22c0.09,0.05,0.27,0.08,0.52,0.08l0,0.21l-2.65,0l0,-0.21l0.11,0c0.25,0,0.42,-0.03,0.52,-0.11c0.09,-0.07,0.16,-0.18,0.2,-0.33c0.01,-0.05,0.02,-0.24,0.02,-0.55l0,-2.19c0,-0.48,-0.06,-0.84,-0.19,-1.06c-0.12,-0.22,-0.34,-0.33,-0.64,-0.33c-0.46,0,-0.92,0.25,-1.38,0.76l0,2.83c0,0.36,0.02,0.58,0.06,0.67c0.05,0.11,0.12,0.19,0.22,0.24c0.09,0.05,0.29,0.07,0.58,0.07l0,0.21l-2.65,0l0,-0.21l0.11,0c0.27,0,0.45,-0.06,0.55,-0.2c0.09,-0.13,0.14,-0.4,0.14,-0.79l0,-1.99c0,-0.64,-0.01,-1.03,-0.04,-1.17c-0.02,-0.14,-0.07,-0.23,-0.13,-0.28c-0.06,-0.05,-0.14,-0.07,-0.24,-0.07c-0.1,0,-0.24,0.02,-0.39,0.08l-0.08,-0.21l1.61,-0.65l0.25,0l0,1.13m10.47,3.61c-0.55,0.42,-0.89,0.67,-1.03,0.73c-0.21,0.09,-0.43,0.14,-0.67,0.14c-0.37,0,-0.67,-0.12,-0.91,-0.38c-0.24,-0.25,-0.36,-0.58,-0.36,-1c0,-0.26,0.05,-0.48,0.17,-0.67c0.16,-0.26,0.43,-0.51,0.83,-0.75c0.39,-0.23,1.05,-0.51,1.97,-0.85l0,-0.21c0,-0.53,-0.08,-0.9,-0.25,-1.1c-0.16,-0.19,-0.41,-0.29,-0.74,-0.29c-0.24,0,-0.44,0.06,-0.58,0.2c-0.14,0.13,-0.22,0.28,-0.22,0.45l0.01,0.34c0,0.17,-0.04,0.31,-0.13,0.41c-0.09,0.09,-0.21,0.14,-0.36,0.14c-0.14,0,-0.26,-0.05,-0.35,-0.15c-0.09,-0.1,-0.13,-0.24,-0.13,-0.41c0,-0.33,0.17,-0.64,0.51,-0.92c0.34,-0.28,0.82,-0.42,1.44,-0.42c0.47,0,0.86,0.07,1.17,0.23c0.23,0.12,0.4,0.31,0.51,0.56c0.06,0.16,0.1,0.51,0.1,1.03l0,1.82c0,0.51,0,0.82,0.02,0.94c0.01,0.11,0.05,0.19,0.09,0.23c0.04,0.03,0.09,0.05,0.15,0.05c0.06,0,0.11,-0.01,0.16,-0.04c0.08,-0.05,0.24,-0.19,0.47,-0.42l0,0.32c-0.43,0.58,-0.85,0.87,-1.25,0.87c-0.19,0,-0.34,-0.06,-0.45,-0.2c-0.11,-0.13,-0.17,-0.35,-0.17,-0.67m0,-0.38l0,-2.04c-0.58,0.23,-0.97,0.4,-1.14,0.49c-0.3,0.17,-0.52,0.35,-0.66,0.53c-0.13,0.18,-0.19,0.39,-0.19,0.61c0,0.28,0.08,0.51,0.25,0.7c0.16,0.18,0.36,0.27,0.57,0.27c0.29,0,0.68,-0.19,1.17,-0.58m6.84,-5.97l0,1.76l1.25,0l0,0.4l-1.25,0l0,3.48c0,0.34,0.04,0.58,0.14,0.7c0.09,0.12,0.22,0.18,0.38,0.18c0.12,0,0.25,-0.04,0.37,-0.12c0.12,-0.08,0.21,-0.19,0.28,-0.35l0.22,0c-0.13,0.38,-0.32,0.67,-0.57,0.86c-0.25,0.19,-0.5,0.28,-0.77,0.28c-0.18,0,-0.35,-0.04,-0.52,-0.14c-0.17,-0.09,-0.29,-0.24,-0.38,-0.42c-0.08,-0.18,-0.12,-0.47,-0.12,-0.85l0,-3.6l-0.85,0l0,-0.19c0.21,-0.08,0.43,-0.23,0.65,-0.43c0.22,-0.2,0.42,-0.44,0.6,-0.72c0.09,-0.14,0.21,-0.41,0.37,-0.81l0.18,0m3.13,-1.2c0.16,0,0.3,0.05,0.41,0.17c0.11,0.11,0.17,0.25,0.17,0.41c0,0.16,-0.05,0.3,-0.17,0.42c-0.11,0.11,-0.25,0.17,-0.41,0.17c-0.16,0,-0.3,-0.05,-0.42,-0.17c-0.11,-0.11,-0.17,-0.25,-0.17,-0.42c0,-0.16,0.05,-0.3,0.17,-0.41c0.11,-0.11,0.25,-0.17,0.42,-0.17m0.48,2.8l0,4.31c0,0.33,0.02,0.55,0.07,0.67c0.04,0.11,0.12,0.19,0.21,0.24c0.09,0.05,0.27,0.08,0.52,0.08l0,0.21l-2.6,0l0,-0.21c0.26,0,0.43,-0.02,0.52,-0.07c0.08,-0.05,0.16,-0.13,0.21,-0.25c0.05,-0.11,0.07,-0.34,0.07,-0.67l0,-2.06c0,-0.58,-0.01,-0.95,-0.05,-1.13c-0.02,-0.12,-0.07,-0.21,-0.12,-0.26c-0.05,-0.04,-0.13,-0.07,-0.23,-0.07c-0.1,0,-0.24,0.02,-0.39,0.08l-0.08,-0.21l1.61,-0.65l0.25,0m3.07,1.14c0.39,-0.39,0.62,-0.61,0.69,-0.67c0.17,-0.14,0.36,-0.26,0.56,-0.34c0.2,-0.08,0.4,-0.12,0.6,-0.12c0.33,0,0.62,0.09,0.86,0.29c0.24,0.19,0.4,0.47,0.48,0.84c0.4,-0.46,0.74,-0.77,1.01,-0.92c0.27,-0.14,0.56,-0.21,0.85,-0.21c0.28,0,0.53,0.07,0.75,0.21c0.22,0.14,0.39,0.38,0.52,0.71c0.08,0.22,0.12,0.58,0.12,1.06l0,2.3c0,0.33,0.02,0.56,0.07,0.69c0.03,0.08,0.11,0.15,0.21,0.22c0.1,0.06,0.27,0.09,0.51,0.09l0,0.21l-2.64,0l0,-0.21l0.11,0c0.23,0,0.41,-0.04,0.53,-0.13c0.09,-0.06,0.15,-0.16,0.19,-0.3c0.01,-0.06,0.02,-0.25,0.02,-0.56l0,-2.3c0,-0.43,-0.05,-0.74,-0.15,-0.92c-0.15,-0.25,-0.39,-0.37,-0.73,-0.37c-0.2,0,-0.41,0.05,-0.62,0.15c-0.2,0.1,-0.46,0.29,-0.75,0.57l-0.01,0.06l0.01,0.25l0,2.56c0,0.36,0.02,0.59,0.06,0.68c0.04,0.09,0.11,0.16,0.23,0.22c0.11,0.06,0.3,0.09,0.58,0.09l0,0.21l-2.71,0l0,-0.21c0.29,0,0.5,-0.03,0.61,-0.1c0.11,-0.07,0.18,-0.17,0.23,-0.31c0.01,-0.06,0.02,-0.25,0.02,-0.57l0,-2.3c0,-0.43,-0.06,-0.75,-0.19,-0.94c-0.17,-0.25,-0.41,-0.37,-0.72,-0.37c-0.21,0,-0.41,0.05,-0.62,0.17c-0.32,0.17,-0.57,0.36,-0.75,0.57l0,2.87c0,0.35,0.02,0.57,0.07,0.68c0.04,0.1,0.12,0.18,0.21,0.23c0.09,0.05,0.29,0.07,0.58,0.07l0,0.21l-2.65,0l0,-0.21c0.24,0,0.41,-0.02,0.51,-0.07c0.09,-0.05,0.17,-0.13,0.22,-0.25c0.05,-0.11,0.07,-0.33,0.07,-0.67l0,-2.05c0,-0.58,-0.01,-0.97,-0.05,-1.14c-0.02,-0.12,-0.07,-0.21,-0.12,-0.26c-0.05,-0.04,-0.13,-0.07,-0.24,-0.07c-0.1,0,-0.24,0.02,-0.39,0.08l-0.08,-0.21l1.61,-0.65l0.25,0l0,1.14m8.64,1.03c0,0.79,0.18,1.42,0.57,1.87c0.39,0.45,0.84,0.67,1.37,0.67c0.35,0,0.65,-0.09,0.91,-0.29c0.25,-0.19,0.47,-0.52,0.65,-0.99l0.18,0.11c-0.08,0.53,-0.31,1.02,-0.71,1.46c-0.39,0.43,-0.88,0.65,-1.48,0.65c-0.64,0,-1.19,-0.25,-1.65,-0.75c-0.45,-0.5,-0.68,-1.17,-0.68,-2.02c0,-0.91,0.23,-1.63,0.7,-2.14c0.47,-0.51,1.06,-0.77,1.77,-0.77c0.6,0,1.09,0.19,1.48,0.59c0.38,0.39,0.57,0.92,0.57,1.59l-3.7,0m0,-0.34l2.48,0c-0.01,-0.34,-0.06,-0.58,-0.12,-0.72c-0.09,-0.21,-0.24,-0.39,-0.43,-0.51c-0.19,-0.12,-0.39,-0.18,-0.6,-0.18c-0.32,0,-0.61,0.12,-0.86,0.37c-0.25,0.25,-0.4,0.6,-0.44,1.05m10.89,-1.83l0,1.82l-0.19,0c-0.14,-0.57,-0.33,-0.96,-0.57,-1.17c-0.23,-0.2,-0.52,-0.31,-0.88,-0.31c-0.27,0,-0.49,0.07,-0.66,0.21c-0.16,0.14,-0.25,0.3,-0.25,0.48c0,0.21,0.06,0.4,0.18,0.56c0.12,0.16,0.36,0.33,0.73,0.5l0.85,0.41c0.79,0.38,1.18,0.89,1.18,1.52c0,0.48,-0.18,0.88,-0.55,1.18c-0.36,0.29,-0.78,0.44,-1.23,0.44c-0.32,0,-0.7,-0.05,-1.12,-0.17c-0.12,-0.03,-0.23,-0.05,-0.31,-0.05c-0.08,0,-0.15,0.05,-0.21,0.15l-0.19,0l0,-1.91l0.19,0c0.1,0.54,0.31,0.95,0.62,1.23c0.3,0.27,0.65,0.41,1.03,0.41c0.26,0,0.48,-0.07,0.65,-0.23c0.16,-0.15,0.25,-0.34,0.25,-0.57c0,-0.26,-0.09,-0.49,-0.28,-0.67c-0.18,-0.18,-0.56,-0.41,-1.13,-0.69c-0.56,-0.28,-0.93,-0.53,-1.11,-0.76c-0.17,-0.22,-0.26,-0.5,-0.26,-0.84c0,-0.44,0.15,-0.8,0.45,-1.1c0.3,-0.29,0.69,-0.44,1.17,-0.44c0.21,0,0.46,0.04,0.76,0.13c0.19,0.05,0.33,0.08,0.39,0.08c0.06,0,0.11,-0.01,0.14,-0.04c0.03,-0.02,0.07,-0.08,0.12,-0.18l0.19,0m2.75,-1.6l0,1.76l1.25,0l0,0.4l-1.25,0l0,3.48c0,0.34,0.04,0.58,0.14,0.7c0.09,0.12,0.22,0.18,0.38,0.18c0.12,0,0.25,-0.04,0.37,-0.12c0.12,-0.08,0.21,-0.19,0.28,-0.35l0.22,0c-0.13,0.38,-0.32,0.67,-0.57,0.86c-0.25,0.19,-0.5,0.28,-0.77,0.28c-0.18,0,-0.35,-0.04,-0.52,-0.14c-0.17,-0.09,-0.29,-0.24,-0.38,-0.42c-0.08,-0.18,-0.12,-0.47,-0.12,-0.85l0,-3.6l-0.85,0l0,-0.19c0.21,-0.08,0.43,-0.23,0.65,-0.43c0.22,-0.2,0.42,-0.44,0.6,-0.72c0.09,-0.14,0.21,-0.41,0.37,-0.81l0.18,0m2.67,3.78c0,0.79,0.18,1.42,0.57,1.87c0.39,0.45,0.84,0.67,1.37,0.67c0.35,0,0.65,-0.09,0.91,-0.29c0.25,-0.19,0.47,-0.52,0.65,-0.99l0.18,0.11c-0.08,0.53,-0.31,1.02,-0.71,1.46c-0.39,0.43,-0.88,0.65,-1.48,0.65c-0.64,0,-1.19,-0.25,-1.65,-0.75c-0.45,-0.5,-0.68,-1.17,-0.68,-2.02c0,-0.91,0.23,-1.63,0.7,-2.14c0.47,-0.51,1.06,-0.77,1.77,-0.77c0.6,0,1.09,0.19,1.48,0.59c0.38,0.39,0.57,0.92,0.57,1.59l-3.7,0m0,-0.34l2.48,0c-0.01,-0.34,-0.06,-0.58,-0.12,-0.72c-0.09,-0.21,-0.24,-0.39,-0.43,-0.51c-0.19,-0.12,-0.39,-0.18,-0.6,-0.18c-0.32,0,-0.61,0.12,-0.86,0.37c-0.25,0.25,-0.4,0.6,-0.44,1.05m4.03,-1.14l1.65,-0.66l0.22,0l0,1.25c0.27,-0.47,0.55,-0.8,0.83,-0.99c0.27,-0.18,0.57,-0.28,0.88,-0.28c0.53,0,0.98,0.21,1.34,0.63c0.44,0.51,0.66,1.18,0.66,2.01c0,0.92,-0.26,1.69,-0.79,2.29c-0.43,0.49,-0.98,0.74,-1.65,0.74c-0.28,0,-0.53,-0.04,-0.75,-0.12c-0.15,-0.05,-0.33,-0.17,-0.52,-0.35l0,1.63c0,0.36,0.02,0.59,0.06,0.69c0.04,0.09,0.12,0.17,0.23,0.23c0.11,0.05,0.31,0.08,0.6,0.08l0,0.21l-2.81,0l0,-0.21l0.14,0c0.21,0,0.39,-0.03,0.55,-0.12c0.07,-0.04,0.13,-0.11,0.17,-0.2c0.04,-0.09,0.06,-0.33,0.06,-0.72l0,-5.07c0,-0.34,-0.01,-0.56,-0.04,-0.66c-0.03,-0.09,-0.08,-0.16,-0.14,-0.21c-0.06,-0.04,-0.16,-0.07,-0.27,-0.07c-0.09,0,-0.21,0.02,-0.35,0.08l-0.07,-0.18m1.87,0.93l0,2c0,0.43,0.01,0.71,0.05,0.85c0.05,0.22,0.18,0.42,0.4,0.59c0.21,0.17,0.48,0.25,0.8,0.25c0.39,0,0.7,-0.15,0.94,-0.45c0.31,-0.39,0.47,-0.95,0.47,-1.68c0,-0.81,-0.17,-1.45,-0.53,-1.89c-0.25,-0.3,-0.54,-0.45,-0.89,-0.45c-0.18,0,-0.37,0.04,-0.55,0.14c-0.14,0.07,-0.37,0.28,-0.69,0.63" fill="#000000" stroke="none" fill-opacity="1"/>
</g>
<path d="m40.4,101.71l1.5,-0.32c0.1,0.25,0.19,0.52,0.26,0.78c0.09,0.39,0.17,0.86,0.22,1.4c0.02,0.27,0.06,0.84,0.11,1.72c0.43,-0.48,0.69,-0.77,0.77,-0.89c0.45,-0.62,0.72,-0.99,0.79,-1.09c0.11,-0.18,0.19,-0.34,0.24,-0.48c0.03,-0.1,0.05,-0.2,0.05,-0.29c0,-0.09,-0.08,-0.19,-0.24,-0.31c-0.16,-0.11,-0.24,-0.25,-0.24,-0.39c0,-0.11,0.04,-0.21,0.13,-0.29c0.08,-0.08,0.19,-0.13,0.31,-0.13c0.14,0,0.27,0.06,0.38,0.18c0.11,0.12,0.16,0.26,0.16,0.44c0,0.17,-0.02,0.34,-0.08,0.51c-0.09,0.26,-0.25,0.58,-0.5,0.96c-0.24,0.38,-0.64,0.89,-1.19,1.53c-0.06,0.08,-0.45,0.48,-1.15,1.21l-0.19,0c-0.08,-2.2,-0.25,-3.57,-0.52,-4.12c-0.08,-0.17,-0.23,-0.26,-0.43,-0.26c-0.08,0,-0.21,0.01,-0.37,0.04l-0.03,-0.18" fill="#000000" stroke="none" fill-opacity="1"/>
<path d="m47.79,101.5l5.63,0l0,0.42l-5.63,0l0,-0.42m0,1.7l5.63,0l0,0.42l-5.63,0l0,-0.42m8.9,-0.59c0,-0.8,0.12,-1.5,0.36,-2.08c0.24,-0.58,0.56,-1.01,0.97,-1.3c0.31,-0.22,0.63,-0.34,0.97,-0.34c0.54,0,1.03,0.27,1.46,0.83c0.53,0.68,0.8,1.61,0.8,2.78c0,0.82,-0.11,1.52,-0.35,2.09c-0.23,0.57,-0.53,0.99,-0.9,1.25c-0.36,0.25,-0.72,0.38,-1.06,0.38c-0.67,0,-1.23,-0.39,-1.68,-1.19c-0.38,-0.67,-0.57,-1.48,-0.57,-2.42m1.02,0.12c0,0.97,0.12,1.77,0.36,2.38c0.19,0.51,0.49,0.77,0.88,0.77c0.18,0,0.38,-0.08,0.58,-0.25c0.2,-0.16,0.35,-0.45,0.46,-0.84c0.16,-0.59,0.24,-1.44,0.24,-2.53c0,-0.8,-0.08,-1.48,-0.25,-2.02c-0.12,-0.4,-0.28,-0.68,-0.48,-0.85c-0.14,-0.11,-0.31,-0.17,-0.51,-0.17c-0.23,0,-0.44,0.1,-0.63,0.31c-0.25,0.28,-0.42,0.74,-0.51,1.36c-0.09,0.62,-0.13,1.23,-0.13,1.83m5.27,2.35c0.16,0,0.3,0.05,0.41,0.17c0.11,0.11,0.16,0.25,0.16,0.4c0,0.16,-0.05,0.29,-0.16,0.41c-0.11,0.11,-0.24,0.17,-0.41,0.17c-0.16,0,-0.29,-0.05,-0.41,-0.17c-0.11,-0.11,-0.16,-0.25,-0.16,-0.41c0,-0.16,0.05,-0.3,0.16,-0.41c0.11,-0.11,0.24,-0.16,0.41,-0.16m2.59,-5.37l1.72,-0.84l0.17,0l0,5.98c0,0.39,0.01,0.64,0.05,0.74c0.03,0.09,0.1,0.17,0.2,0.22c0.1,0.05,0.31,0.08,0.63,0.08l0,0.19l-2.66,0l0,-0.19c0.33,0,0.55,-0.03,0.64,-0.08c0.09,-0.05,0.16,-0.11,0.2,-0.2c0.03,-0.08,0.05,-0.34,0.05,-0.76l0,-3.82c0,-0.51,-0.01,-0.84,-0.05,-0.99c-0.02,-0.11,-0.06,-0.19,-0.13,-0.24c-0.06,-0.05,-0.14,-0.07,-0.23,-0.07c-0.12,0,-0.3,0.05,-0.53,0.16l-0.07,-0.16m8.74,-0.69l-0.4,0.88l-2.13,0l-0.46,0.95c0.92,0.13,1.65,0.47,2.19,1.02c0.46,0.47,0.69,1.03,0.69,1.67c0,0.37,-0.07,0.71,-0.22,1.03c-0.15,0.31,-0.34,0.58,-0.57,0.81c-0.22,0.22,-0.48,0.4,-0.76,0.53c-0.4,0.19,-0.81,0.28,-1.23,0.28c-0.42,0,-0.73,-0.07,-0.92,-0.21c-0.19,-0.14,-0.28,-0.3,-0.28,-0.47c0,-0.09,0.04,-0.18,0.12,-0.25c0.08,-0.07,0.18,-0.11,0.3,-0.11c0.08,0,0.16,0.01,0.23,0.04c0.06,0.02,0.18,0.09,0.34,0.21c0.26,0.18,0.52,0.27,0.79,0.27c0.4,0,0.76,-0.15,1.07,-0.46c0.3,-0.3,0.46,-0.68,0.46,-1.12c0,-0.42,-0.13,-0.82,-0.41,-1.19c-0.27,-0.37,-0.65,-0.65,-1.13,-0.85c-0.37,-0.15,-0.89,-0.24,-1.55,-0.27l1.35,-2.75l2.53,0" fill="#000000" stroke="none" fill-opacity="1"/>
</g>
</g>
<g clip-path="url(#c2)">
<g fill="#77767b" stroke-width="0.66">
<path d="m40.71,172.59l3.5,0l0,-25.61l-3.5,0l0,25.61m4.66,0l3.5,0l0,-25.61l-3.5,0l0,25.61m4.66,0l3.5,0l0,-25.61l-3.5,0l0,25.61m4.66,0l3.5,0l0,-25.61l-3.5,0l0,25.61m4.66,0l3.5,0l0,-25.61l-3.5,0l0,25.61m4.66,0l3.5,0l0,-25.61l-3.5,0l0,25.61m4.66,0l3.5,0l0,-25.61l-3.5,0l0,25.61m4.66,0l3.5,0l0,-29.88l-3.5,0l0,29.88m4.66,0l3.5,0l0,-29.88l-3.5,0l0,29.88m4.66,0l3.5,0l0,-29.88l-3.5,0l0,29.88m4.66,0l3.5,0l0,-29.88l-3.5,0l0,29.88m4.66,0l3.5,0l0,-29.88l-3.5,0l0,29.88m4.66,0l3.5,0l0,-34.15l-3.5,0l0,34.15m4.66,0l3.5,0l0,-34.15l-3.5,0l0,34.15m4.66,0l3.5,0l0,-34.15l-3.5,0l0,34.15m4.66,0l3.5,0l0,-34.15l-3.5,0l0,34.15m4.66,0l3.5,0l0,-34.15l-3.5,0l0,34.15m4.66,0l3.5,0l0,-34.15l-3.5,0l0,34.15m4.66,0l3.5,0l0,-38.42l-3.5,0l0,38.42m4.66,0l3.5,0l0,-38.42l-3.5,0l0,38.42m4.66,0l3.5,0l0,-38.42l-3.5,0l0,38.42m4.66,0l3.5,0l0,-38.42l-3.5,0l0,38.42m4.66,0l3.5,0l0,-38.42l-3.5,0l0,38.42m4.66,0l3.5,0l0,-38.42l-3.5,0l0,38.42m4.66,0l3.5,0l0,-42.69l-3.5,0l0,42.69m4.66,0l3.5,0l0,-42.69l-3.5,0l0,42.69m4.66,0l3.5,0l0,-42.69l-3.5,0l0,42.69m4.66,0l3.5,0l0,-42.69l-3.5,0l0,42.69m4.66,0l3.5,0l0,-42.69l-3.5,0l0,42.69m4.66,0l3.5,0l0,-46.96l-3.5,0l0,46.96m4.66,0l3.5,0l0,-46.96l-3.5,0l0,46.96m4.66,0l3.5,0l0,-46.96l-3.5,0l0,46.96m4.66,0l3.5,0l0,-46.96l-3.5,0l0,46.96m4.66,0l3.5,0l0,-46.96l-3.5,0l0,46.96m4.66,0l3.5,0l0,-46.96l-3.5,0l0,46.96m4.66,0l3.5,0l0,-46.96l-3.5,0l0,46.96m4.66,0l3.5,0l0,-51.23l-3.5,0l0,51.23m4.66,0l3.5,0l0,-51.23l-3.5,0l0,51.23m4.66,0l3.5,0l0,-51.23l-3.5,0l0,51.23m4.66,0l3.5,0l0,-51.23l-3.5,0l0,51.23m4.66,0l3.5,0l0,-51.23l-3.5,0l0,51.23m4.66,0l3.5,0l0,-55.5l-3.5,0l0,55.5m4.66,0l3.5,0l0,-55.5l-3.5,0l0,55.5m4.66,0l3.5,0l0,-55.5l-3.5,0l0,55.5m4.66,0l3.5,0l0,-55.5l-3.5,0l0,55.5m4.66,0l3.5,0l0,-59.77l-3.5,0l0,59.77m4.66,0l3.5,0l0,-59.77l-3.5,0l0,59.77m4.66,0l3.5,0l0,-59.77l-3.5,0l0,59.77m4.66,0l3.5,0l0,-59.77l-3.5,0l0,59.77m4.66,0l3.5,0l0,-59.77l-3.5,0l0,59.77"/>
</g>
</g>
<g clip-path="url(#c0)">
<g fill="none" stroke-linecap="butt" stroke-width="0.66">
<path d="M37.79,172.59l0,-76.85"/>
<path d="M37.79,172.59l-4,0M37.79,151.25l-4,0M37.79,129.9l-4,0M37.79,108.55l-4,0"/>
</g>
<g fill="none" stroke-width="0.1">
<path d="m26.12,172.84c0,-0.8,0.12,-1.5,0.36,-2.08c0.24,-0.58,0.56,-1.01,0.97,-1.3c0.31,-0.22,0.63,-0.34,0.97,-0.34c0.54,0,1.03,0.27,1.46,0.83c0.53,0.68,0.8,1.61,0.8,2.78c0,0.82,-0.11,1.52,-0.35,2.09c-0.23,0.57,-0.53,0.99,-0.9,1.25c-0.36,0.25,-0.72,0.38,-1.06,0.38c-0.67,0,-1.23,-0.39,-1.68,-1.19c-0.38,-0.67,-0.57,-1.48,-0.57,-2.42m1.02,0.12c0,0.97,0.12,1.77,0.36,2.38c0.19,0.51,0.49,0.77,0.88,0.77c0.18,0,0.38,-0.08,0.58,-0.25c0.2,-0.16,0.35,-0.45,0.46,-0.84c0.16,-0.59,0.24,-1.44,0.24,-2.53c0,-0.8,-0.08,-1.48,-0.25,-2.02c-0.12,-0.4,-0.28,-0.68,-0.48,-0.85c-0.14,-0.11,-0.31,-0.17,-0.51,-0.17c-0.23,0,-0.44,0.1,-0.63,0.31c-0.25,0.28,-0.42,0.74,-0.51,1.36c-0.09,0.62,-0.13,1.23,-0.13,1.83" fill="#000000" stroke="none" fill-opacity="1"/>
<path d="m30.38,147.91l-0.4,0.88l-2.13,0l-0.46,0.95c0.92,0.13,1.65,0.47,2.19,1.02c0.46,0.47,0.69,1.03,0.69,1.67c0,0.37,-0.07,0.71,-0.22,1.03c-0.15,0.31,-0.34,0.58,-0.57,0.81c-0.22,0.22,-0.48,0.4,-0.76,0.53c-0.4,0.19,-0.81,0.28,-1.23,0.28c-0.42,0,-0.73,-0.07,-0.92,-0.21c-0.19,-0.14,-0.28,-0.3,-0.28,-0.47c0,-0.09,0.04,-0.18,0.12,-0.25c0.08,-0.07,0.18,-0.11,0.3,-0.11c0.08,0,0.16,0.01,0.23,0.04c0.06,0.02,0.18,0.09,0.34,0.21c0.26,0.18,0.52,0.27,0.79,0.27c0.4,0,0.76,-0.15,1.07,-0.46c0.3,-0.3,0.46,-0.68,0.46,-1.12c0,-0.42,-0.13,-0.82,-0.41,-1.19c-0.27,-0.37,-0.65,-0.65,-1.13,-0.85c-0.37,-0.15,-0.89,-0.24,-1.55,-0.27l1.35,-2.75l2.53,0" fill="#000000" stroke="none" fill-opacity="1"/>
<path d="m21.64,127.26l1.72,-0.84l0.17,0l0,5.98c0,0.39,0.01,0.64,0.05,0.74c0.03,0.09,0.1,0.17,0.2,0.22c0.1,0.05,0.31,0.08,0.63,0.08l0,0.19l-2.66,0l0,-0.19c0.33,0,0.55,-0.03,0.64,-0.08c0.09,-0.05,0.16,-0.11,0.2,-0.2c0.03,-0.08,0.05,-0.34,0.05,-0.76l0,-3.82c0,-0.51,-0.01,-0.84,-0.05,-0.99c-0.02,-0.11,-0.06,-0.19,-0.13,-0.24c-0.06,-0.05,-0.14,-0.07,-0.23,-0.07c-0.12,0,-0.3,0.05,-0.53,0.16l-0.07,-0.16m4.48,2.88c0,-0.8,0.12,-1.5,0.36,-2.08c0.24,-0.58,0.56,-1.01,0.97,-1.3c0.31,-0.22,0.63,-0.34,0.97,-0.34c0.54,0,1.03,0.27,1.46,0.83c0.53,0.68,0.8,1.61,0.8,2.78c0,0.82,-0.11,1.52,-0.35,2.09c-0.23,0.57,-0.53,0.99,-0.9,1.25c-0.36,0.25,-0.72,0.38,-1.06,0.38c-0.67,0,-1.23,-0.39,-1.68,-1.19c-0.38,-0.67,-0.57,-1.48,-0.57,-2.42m1.02,0.12c0,0.97,0.12,1.77,0.36,2.38c0.19,0.51,0.49,0.77,0.88,0.77c0.18,0,0.38,-0.08,0.58,-0.25c0.2,-0.16,0.35,-0.45,0.46,-0.84c0.16,-0.59,0.24,-1.44,0.24,-2.53c0,-0.8,-0.08,-1.48,-0.25,-2.02c-0.12,-0.4,-0.28,-0.68,-0.48,-0.85c-0.14,-0.11,-0.31,-0.17,-0.51,-0.17c-0.23,0,-0.44,0.1,-0.63,0.31c-0.25,0.28,-0.42,0.74,-0.51,1.36c-0.09,0.62,-0.13,1.23,-0.13,1.83" fill="#000000" stroke="none" fill-opacity="1"/>
<path d="m21.64,105.91l1.72,-0.84l0.17,0l0,5.98c0,0.39,0.01,0.64,0.05,0.74c0.03,0.09,0.1,0.17,0.2,0.22c0.1,0.05,0.31,0.08,0.63,0.08l0,0.19l-2.66,0l0,-0.19c0.33,0,0.55,-0.03,0.64,-0.08c0.09,-0.05,0.16,-0.11,0.2,-0.2c0.03,-0.08,0.05,-0.34,0.05,-0.76l0,-3.82c0,-0.51,-0.01,-0.84,-0.05,-0.99c-0.02,-0.11,-0.06,-0.19,-0.13,-0.24c-0.06,-0.05,-0.14,-0.07,-0.23,-0.07c-0.12,0,-0.3,0.05,-0.53,0.16l-0.07,-0.16m8.74,-0.69l-0.4,0.88l-2.13,0l-0.46,0.95c0.92,0.13,1.65,0.47,2.19,1.02c0.46,0.47,0.69,1.03,0.69,1.67c0,0.37,-0.07,0.71,-0.22,1.03c-0.15,0.31,-0.34,0.58,-0.57,0.81c-0.22,0.22,-0.48,0.4,-0.76,0.53c-0.4,0.19,-0.81,0.28,-1.23,0.28c-0.42,0,-0.73,-0.07,-0.92,-0.21c-0.19,-0.14,-0.28,-0.3,-0.28,-0.47c0,-0.09,0.04,-0.18,0.12,-0.25c0.08,-0.07,0.18,-0.11,0.3,-0.11c0.08,0,0.16,0.01,0.23,0.04c0.06,0.02,0.18,0.09,0.34,0.21c0.26,0.18,0.52,0.27,0.79,0.27c0.4,0,0.76,-0.15,1.07,-0.46c0.3,-0.3,0.46,-0.68,0.46,-1.12c0,-0.42,-0.13,-0.82,-0.41,-1.19c-0.27,-0.37,-0.65,-0.65,-1.13,-0.85c-0.37,-0.15,-0.89,-0.24,-1.55,-0.27l1.35,-2.75l2.53,0" fill="#000000" stroke="none" fill-opacity="1"/>
</g>
<g fill="none" stroke-linecap="butt" stroke-width="0.66">
<path d="M37.79,172.59l238.11,0"/>
<path d="M42.46,172.59l0,4M84.48,172.59l0,4M131.17,172.59l0,4M177.86,172.59l0,4M224.54,172.59l0,4M271.23,172.59l0,4"/>
</g>
<g fill="#ffffff" stroke-width="0.66">
<path d="m37.79,183.93l238.11,0l0,76.85l-238.11,0l0,-76.85"/>
</g>
<g fill="none" stroke-width="0.1">
<path d="m40.4,189.9l1.5,-0.32c0.1,0.25,0.19,0.52,0.26,0.78c0.09,0.39,0.17,0.86,0.22,1.4c0.02,0.27,0.06,0.84,0.11,1.72c0.43,-0.48,0.69,-0.77,0.77,-0.89c0.45,-0.62,0.72,-0.99,0.79,-1.09c0.11,-0.18,0.19,-0.34,0.24,-0.48c0.03,-0.1,0.05,-0.2,0.05,-0.29c0,-0.09,-0.08,-0.19,-0.24,-0.31c-0.16,-0.11,-0.24,-0.25,-0.24,-0.39c0,-0.11,0.04,-0.21,0.13,-0.29c0.08,-0.08,0.19,-0.13,0.31,-0.13c0.14,0,0.27,0.06,0.38,0.18c0.11,0.12,0.16,0.26,0.16,0.44c0,0.17,-0.02,0.34,-0.08,0.51c-0.09,0.26,-0.25,0.58,-0.5,0.96c-0.24,0.38,-0.64,0.89,-1.19,1.53c-0.06,0.08,-0.45,0.48,-1.15,1.21l-0.19,0c-0.08,-2.2,-0.25,-3.57,-0.52,-4.12c-0.08,-0.17,-0.23,-0.26,-0.43,-0.26c-0.08,0,-0.21,0.01,-0.37,0.04l-0.03,-0.18" fill="#000000" stroke="none" fill-opacity="1"/>
<path d="m47.79,189.69l5.63,0l0,0.42l-5.63,0l0,-0.42m0,1.7l5.63,0l0,0.42l-5.63,0l0,-0.42m8.9,-0.59c0,-0.8,0.12,-1.5,0.36,-2.08c0.24,-0.58,0.56,-1.01,0.97,-1.3c0.31,-0.22,0.63,-0.34,0.97,-0.34c0.54,0,1.03,0.27,1.46,0.83c0.53,0.68,0.8,1.61,0.8,2.78c0,0.82,-0.11,1.52,-0.35,2.09c-0.23,0.57,-0.53,0.99,-0.9,1.25c-0.36,0.25,-0.72,0.38,-1.06,0.38c-0.67,0,-1.23,-0.39,-1.68,-1.19c-0.38,-0.67,-0.57,-1.48,-0.57,-2.42m1.02,0.12c0,0.97,0.12,1.77,0.36,2.38c0.19,0.51,0.49,0.77,0.88,0.77c0.18,0,0.38,-0.08,0.58,-0.25c0.2,-0.16,0.35,-0.45,0.46,-0.84c0.16,-0.59,0.24,-1.44,0.24,-2.53c0,-0.8,-0.08,-1.48,-0.25,-2.02c-0.12,-0.4,-0.28,-0.68,-0.48,-0.85c-0.14,-0.11,-0.31,-0.17,-0.51,-0.17c-0.23,0,-0.44,0.1,-0.63,0.31c-0.25,0.28,-0.42,0.74,-0.51,1.36c-0.09,0.62,-0.13,1.23,-0.13,1.83m5.27,2.35c0.16,0,0.3,0.05,0.41,0.17c0.11,0.11,0.16,0.25,0.16,0.4c0,0.16,-0.05,0.29,-0.16,0.41c-0.11,0.11,-0.24,0.17,-0.41,0.17c-0.16,0,-0.29,-0.05,-0.41,-0.17c-0.11,-0.11,-0.16,-0.25,-0.16,-0.41c0,-0.16,0.05,-0.3,0.16,-0.41c0.11,-0.11,0.24,-0.16,0.41,-0.16m1.88,-4.72c0.2,-0.47,0.45,-0.84,0.76,-1.1c0.3,-0.25,0.69,-0.38,1.15,-0.38c0.56,0,1,0.18,1.3,0.55c0.23,0.27,0.34,0.56,0.34,0.88c0,0.51,-0.32,1.04,-0.97,1.59c0.43,0.17,0.76,0.41,0.98,0.73c0.22,0.31,0.33,0.68,0.33,1.11c0,0.61,-0.19,1.14,-0.58,1.59c-0.5,0.58,-1.24,0.87,-2.2,0.87c-0.47,0,-0.8,-0.05,-0.97,-0.17c-0.17,-0.11,-0.25,-0.24,-0.25,-0.38c0,-0.1,0.04,-0.18,0.12,-0.26c0.08,-0.07,0.17,-0.11,0.29,-0.11c0.08,0,0.17,0.01,0.26,0.04c0.05,0.01,0.19,0.08,0.4,0.19c0.2,0.1,0.35,0.17,0.43,0.19c0.12,0.03,0.26,0.05,0.41,0.05c0.35,0,0.66,-0.13,0.92,-0.41c0.26,-0.27,0.39,-0.6,0.39,-0.97c0,-0.27,-0.06,-0.54,-0.18,-0.8c-0.09,-0.19,-0.19,-0.34,-0.29,-0.44c-0.15,-0.13,-0.35,-0.26,-0.61,-0.37c-0.26,-0.11,-0.52,-0.16,-0.79,-0.16l-0.16,0l0,-0.15c0.27,-0.03,0.55,-0.13,0.82,-0.29c0.27,-0.16,0.47,-0.36,0.6,-0.59c0.12,-0.23,0.18,-0.48,0.18,-0.75c0,-0.35,-0.11,-0.64,-0.33,-0.86c-0.22,-0.22,-0.5,-0.33,-0.83,-0.33c-0.53,0,-0.99,0.28,-1.35,0.86l-0.17,-0.08m5.19,2.23c0,-0.8,0.12,-1.5,0.36,-2.08c0.24,-0.58,0.56,-1.01,0.97,-1.3c0.31,-0.22,0.63,-0.34,0.97,-0.34c0.54,0,1.03,0.27,1.46,0.83c0.53,0.68,0.8,1.61,0.8,2.78c0,0.82,-0.11,1.52,-0.35,2.09c-0.23,0.57,-0.53,0.99,-0.9,1.25c-0.36,0.25,-0.72,0.38,-1.06,0.38c-0.67,0,-1.23,-0.39,-1.68,-1.19c-0.38,-0.67,-0.57,-1.48,-0.57,-2.42m1.02,0.12c0,0.97,0.12,1.77,0.36,2.38c0.19,0.51,0.49,0.77,0.88,0.77c0.18,0,0.38,-0.08,0.58,-0.25c0.2,-0.16,0.35,-0.45,0.46,-0.84c0.16,-0.59,0.24,-1.44,0.24,-2.53c0,-0.8,-0.08,-1.48,-0.25,-2.02c-0.12,-0.4,-0.28,-0.68,-0.48,-0.85c-0.14,-0.11,-0.31,-0.17,-0.51,-0.17c-0.23,0,-0.44,0.1,-0.63,0.31c-0.25,0.28,-0.42,0.74,-0.51,1.36c-0.09,0.62,-0.13,1.23,-0.13,1.83" fill="#000000" stroke="none" fill-opacity="1"/>
</g>
</g>
<g clip-path="url(#c3)">
<g fill="#000000" stroke-width="0.66">
<path d="m40.71,260.78l3.5,0l0,-25.61l-3.5,0l0,25.61m4.66,0l3.5,0l0,-25.61l-3.5,0l0,25.61m4.66,0l3.5,0l0,-25.61l-3.5,0l0,25.61m4.66,0l3.5,0l0,-25.61l-3.5,0l0,25.61m4.66,0l3.5,0l0,-25.61l-3.5,0l0,25.61m4.66,0l3.5,0l0,-25.61l-3.5,0l0,25.61m4.66,0l3.5,0l0,-29.88l-3.5,0l0,29.88m4.66,0l3.5,0l0,-25.61l-3.5,0l0,25.61m4.66,0l3.5,0l0,-29.88l-3.5,0l0,29.88m4.66,0l3.5,0l0,-29.88l-3.5,0l0,29.88m4.66,0l3.5,0l0,-29.88l-3.5,0l0,29.88m4.66,0l3.5,0l0,-29.88l-3.5,0l0,29.88m4.66,0l3.5,0l0,-29.88l-3.5,0l0,29.88m4.66,0l3.5,0l0,-34.15l-3.5,0l0,34.15m4.66,0l3.5,0l0,-34.15l-3.5,0l0,34.15m4.66,0l3.5,0l0,-34.15l-3.5,0l0,34.15m4.66,0l3.5,0l0,-34.15l-3.5,0l0,34.15m4.66,0l3.5,0l0,-38.42l-3.5,0l0,38.42m4.66,0l3.5,0l0,-38.42l-3.5,0l0,38.42m4.66,0l3.5,0l0,-38.42l-3.5,0l0,38.42m4.66,0l3.5,0l0,-38.42l-3.5,0l0,38.42m4.66,0l3.5,0l0,-42.69l-3.5,0l0,42.69m4.66,0l3.5,0l0,-42.69l-3.5,0l0,42.69m4.66,0l3.5,0l0,-42.69l-3.5,0l0,42.69m4.66,0l3.5,0l0,-42.69l-3.5,0l0,42.69m4.66,0l3.5,0l0,-42.69l-3.5,0l0,42.69m4.66,0l3.5,0l0,-46.96l-3.5,0l0,46.96m4.66,0l3.5,0l0,-46.96l-3.5,0l0,46.96m4.66,0l3.5,0l0,-46.96l-3.5,0l0,46.96m4.66,0l3.5,0l0,-46.96l-3.5,0l0,46.96m4.66,0l3.5,0l0,-46.96l-3.5,0l0,46.96m4.66,0l3.5,0l0,-51.23l-3.5,0l0,51.23m4.66,0l3.5,0l0,-51.23l-3.5,0l0,51.23m4.66,0l3.5,0l0,-51.23l-3.5,0l0,51.23m4.66,0l3.5,0l0,-55.5l-3.5,0l0,55.5m4.66,0l3.5,0l0,-55.5l-3.5,0l0,55.5m4.66,0l3.5,0l0,-55.5l-3.5,0l0,55.5m4.66,0l3.5,0l0,-55.5l-3.5,0l0,55.5m4.66,0l3.5,0l0,-59.77l-3.5,0l0,59.77m4.66,0l3.5,0l0,-59.77l-3.5,0l0,59.77m4.66,0l3.5,0l0,-59.77l-3.5,0l0,59.77m4.66,0l3.5,0l0,-59.77l-3.5,0l0,59.77m4.66,0l3.5,0l0,-64.04l-3.5,0l0,64.04m4.66,0l3.5,0l0,-64.04l-3.5,0l0,64.04m4.66,0l3.5,0l0,-64.04l-3.5,0l0,64.04m4.66,0l3.5,0l0,-64.04l-3.5,0l0,64.04m4.66,0l3.5,0l0,-68.31l-3.5,0l0,68.31m4.66,0l3.5,0l0,-68.31l-3.5,0l0,68.31m4.66,0l3.5,0l0,-72.58l-3.5,0l0,72.58m4.66,0l3.5,0l0,-72.58l-3.5,0l0,72.58"/>
</g>
</g>
<g clip-path="url(#c0)">
<g fill="none" stroke-linecap="butt" stroke-width="0.66">
<path d="M37.79,260.78l0,-76.85"/>
<path d="M37.79,260.78l-4,0M37.79,239.44l-4,0M37.79,218.09l-4,0M37.79,196.74l-4,0"/>
</g>
<g fill="none" stroke-width="0.1">
<path d="m26.12,261.03c0,-0.8,0.12,-1.5,0.36,-2.08c0.24,-0.58,0.56,-1.01,0.97,-1.3c0.31,-0.22,0.63,-0.34,0.97,-0.34c0.54,0,1.03,0.27,1.46,0.83c0.53,0.68,0.8,1.61,0.8,2.78c0,0.82,-0.11,1.52,-0.35,2.09c-0.23,0.57,-0.53,0.99,-0.9,1.25c-0.36,0.25,-0.72,0.38,-1.06,0.38c-0.67,0,-1.23,-0.39,-1.68,-1.19c-0.38,-0.67,-0.57,-1.48,-0.57,-2.42m1.02,0.12c0,0.97,0.12,1.77,0.36,2.38c0.19,0.51,0.49,0.77,0.88,0.77c0.18,0,0.38,-0.08,0.58,-0.25c0.2,-0.16,0.35,-0.45,0.46,-0.84c0.16,-0.59,0.24,-1.44,0.24,-2.53c0,-0.8,-0.08,-1.48,-0.25,-2.02c-0.12,-0.4,-0.28,-0.68,-0.48,-0.85c-0.14,-0.11,-0.31,-0.17,-0.51,-0.17c-0.23,0,-0.44,0.1,-0.63,0.31c-0.25,0.28,-0.42,0.74,-0.51,1.36c-0.09,0.62,-0.13,1.23,-0.13,1.83" fill="#000000" stroke="none" fill-opacity="1"/>
<path d="m30.38,236.1l-0.4,0.88l-2.13,0l-0.46,0.95c0.92,0.13,1.65,0.47,2.19,1.02c0.46,0.47,0.69,1.03,0.69,1.67c0,0.37,-0.07,0.71,-0.22,1.03c-0.15,0.31,-0.34,0.58,-0.57,0.81c-0.22,0.22,-0.48,0.4,-0.76,0.53c-0.4,0.19,-0.81,0.28,-1.23,0.28c-0.42,0,-0.73,-0.07,-0.92,-0.21c-0.19,-0.14,-0.28,-0.3,-0.28,-0.47c0,-0.09,0.04,-0.18,0.12,-0.25c0.08,-0.07,0.18,-0.11,0.3,-0.11c0.08,0,0.16,0.01,0.23,0.04c0.06,0.02,0.18,0.09,0.34,0.21c0.26,0.18,0.52,0.27,0.79,0.27c0.4,0,0.76,-0.15,1.07,-0.46c0.3,-0.3,0.46,-0.68,0.46,-1.12c0,-0.42,-0.13,-0.82,-0.41,-1.19c-0.27,-0.37,-0.65,-0.65,-1.13,-0.85c-0.37,-0.15,-0.89,-0.24,-1.55,-0.27l1.35,-2.75l2.53,0" fill="#000000" stroke="none" fill-opacity="1"/>
<path d="m21.64,215.45l1.72,-0.84l0.17,0l0,5.98c0,0.39,0.01,0.64,0.05,0.74c0.03,0.09,0.1,0.17,0.2,0.22c0.1,0.05,0.31,0.08,0.63,0.08l0,0.19l-2.66,0l0,-0.19c0.33,0,0.55,-0.03,0.64,-0.08c0.09,-0.05,0.16,-0.11,0.2,-0.2c0.03,-0.08,0.05,-0.34,0.05,-0.76l0,-3.82c0,-0.51,-0.01,-0.84,-0.05,-0.99c-0.02,-0.11,-0.06,-0.19,-0.13,-0.24c-0.06,-0.05,-0.14,-0.07,-0.23,-0.07c-0.12,0,-0.3,0.05,-0.53,0.16l-0.07,-0.16m4.48,2.88c0,-0.8,0.12,-1.5,0.36,-2.08c0.24,-0.58,0.56,-1.01,0.97,-1.3c0.31,-0.22,0.63,-0.34,0.97,-0.34c0.54,0,1.03,0.27,1.46,0.83c0.53,0.68,0.8,1.61,0.8,2.78c0,0.82,-0.11,1.52,-0.35,2.09c-0.23,0.57,-0.53,0.99,-0.9,1.25c-0.36,0.25,-0.72,0.38,-1.06,0.38c-0.67,0,-1.23,-0.39,-1.68,-1.19c-0.38,-0.67,-0.57,-1.48,-0.57,-2.42m1.02,0.12c0,0.97,0.12,1.77,0.36,2.38c0.19,0.51,0.49,0.77,0.88,0.77c0.18,0,0.38,-0.08,0.58,-0.25c0.2,-0.16,0.35,-0.45,0.46,-0.84c0.16,-0.59,0.24,-1.44,0.24,-2.53c0,-0.8,-0.08,-1.48,-0.25,-2.02c-0.12,-0.4,-0.28,-0.68,-0.48,-0.85c-0.14,-0.11,-0.31,-0.17,-0.51,-0.17c-0.23,0,-0.44,0.1,-0.63,0.31c-0.25,0.28,-0.42,0.74,-0.51,1.36c-0.09,0.62,-0.13,1.23,-0.13,1.83" fill="#000000" stroke="none" fill-opacity="1"/>
<path d="m21.64,194.1l1.72,-0.84l0.17,0l0,5.98c0,0.39,0.01,0.64,0.05,0.74c0.03,0.09,0.1,0.17,0.2,0.22c0.1,0.05,0.31,0.08,0.63,0.08l0,0.19l-2.66,0l0,-0.19c0.33,0,0.55,-0.03,0.64,-0.08c0.09,-0.05,0.16,-0.11,0.2,-0.2c0.03,-0.08,0.05,-0.34,0.05,-0.76l0,-3.82c0,-0.51,-0.01,-0.84,-0.05,-0.99c-0.02,-0.11,-0.06,-0.19,-0.13,-0.24c-0.06,-0.05,-0.14,-0.07,-0.23,-0.07c-0.12,0,-0.3,0.05,-0.53,0.16l-0.07,-0.16m8.74,-0.69l-0.4,0.88l-2.13,0l-0.46,0.95c0.92,0.13,1.65,0.47,2.19,1.02c0.46,0.47,0.69,1.03,0.69,1.67c0,0.37,-0.07,0.71,-0.22,1.03c-0.15,0.31,-0.34,0.58,-0.57,0.81c-0.22,0.22,-0.48,0.4,-0.76,0.53c-0.4,0.19,-0.81,0.28,-1.23,0.28c-0.42,0,-0.73,-0.07,-0.92,-0.21c-0.19,-0.14,-0.28,-0.3,-0.28,-0.47c0,-0.09,0.04,-0.18,0.12,-0.25c0.08,-0.07,0.18,-0.11,0.3,-0.11c0.08,0,0.16,0.01,0.23,0.04c0.06,0.02,0.18,0.09,0.34,0.21c0.26,0.18,0.52,0.27,0.79,0.27c0.4,0,0.76,-0.15,1.07,-0.46c0.3,-0.3,0.46,-0.68,0.46,-1.12c0,-0.42,-0.13,-0.82,-0.41,-1.19c-0.27,-0.37,-0.65,-0.65,-1.13,-0.85c-0.37,-0.15,-0.89,-0.24,-1.55,-0.27l1.35,-2.75l2.53,0" fill="#000000" stroke="none" fill-opacity="1"/>
</g>
<g fill="none" stroke-linecap="butt" stroke-width="0.66">
<path d="M37.79,260.78l238.11,0"/>
<path d="M42.46,260.78l0,4M84.48,260.78l0,4M131.17,260.78l0,4M177.86,260.78l0,4M224.54,260.78l0,4M271.23,260.78l0,4"/>
</g>
<g fill="none" stroke-width="0.1">
<path d="m138.68,285.64l0.08,1.86l-0.22,0c-0.04,-0.32,-0.1,-0.56,-0.17,-0.7c-0.12,-0.22,-0.28,-0.39,-0.48,-0.5c-0.2,-0.1,-0.46,-0.16,-0.79,-0.16l-1.12,0l0,6.07c0,0.48,0.05,0.79,0.15,0.91c0.14,0.16,0.37,0.24,0.68,0.24l0.27,0l0,0.21l-3.37,0l0,-0.21l0.28,0c0.33,0,0.57,-0.1,0.71,-0.3c0.08,-0.12,0.12,-0.4,0.12,-0.85l0,-6.07l-0.95,0c-0.37,0,-0.63,0.02,-0.79,0.08c-0.2,0.07,-0.37,0.21,-0.52,0.42c-0.14,0.21,-0.23,0.49,-0.25,0.85l-0.22,0l0.09,-1.86l6.48,0m1.7,-0.38c0.16,0,0.3,0.05,0.41,0.17c0.11,0.11,0.17,0.25,0.17,0.41c0,0.16,-0.05,0.3,-0.17,0.42c-0.11,0.11,-0.25,0.17,-0.41,0.17c-0.16,0,-0.3,-0.05,-0.42,-0.17c-0.11,-0.11,-0.17,-0.25,-0.17,-0.42c0,-0.16,0.05,-0.3,0.17,-0.41c0.11,-0.11,0.25,-0.17,0.42,-0.17m0.48,2.8l0,4.31c0,0.33,0.02,0.55,0.07,0.67c0.04,0.11,0.12,0.19,0.21,0.24c0.09,0.05,0.27,0.08,0.52,0.08l0,0.21l-2.6,0l0,-0.21c0.26,0,0.43,-0.02,0.52,-0.07c0.08,-0.05,0.16,-0.13,0.21,-0.25c0.05,-0.11,0.07,-0.34,0.07,-0.67l0,-2.06c0,-0.58,-0.01,-0.95,-0.05,-1.13c-0.02,-0.12,-0.07,-0.21,-0.12,-0.26c-0.05,-0.04,-0.13,-0.07,-0.23,-0.07c-0.1,0,-0.24,0.02,-0.39,0.08l-0.08,-0.21l1.61,-0.65l0.25,0m3.07,1.14c0.39,-0.39,0.62,-0.61,0.69,-0.67c0.17,-0.14,0.36,-0.26,0.56,-0.34c0.2,-0.08,0.4,-0.12,0.6,-0.12c0.33,0,0.62,0.09,0.86,0.29c0.24,0.19,0.4,0.47,0.48,0.84c0.4,-0.46,0.74,-0.77,1.01,-0.92c0.27,-0.14,0.56,-0.21,0.85,-0.21c0.28,0,0.53,0.07,0.75,0.21c0.22,0.14,0.39,0.38,0.52,0.71c0.08,0.22,0.12,0.58,0.12,1.06l0,2.3c0,0.33,0.02,0.56,0.07,0.69c0.03,0.08,0.11,0.15,0.21,0.22c0.1,0.06,0.27,0.09,0.51,0.09l0,0.21l-2.64,0l0,-0.21l0.11,0c0.23,0,0.41,-0.04,0.53,-0.13c0.09,-0.06,0.15,-0.16,0.19,-0.3c0.01,-0.06,0.02,-0.25,0.02,-0.56l0,-2.3c0,-0.43,-0.05,-0.74,-0.15,-0.92c-0.15,-0.25,-0.39,-0.37,-0.73,-0.37c-0.2,0,-0.41,0.05,-0.62,0.15c-0.2,0.1,-0.46,0.29,-0.75,0.57l-0.01,0.06l0.01,0.25l0,2.56c0,0.36,0.02,0.59,0.06,0.68c0.04,0.09,0.11,0.16,0.23,0.22c0.11,0.06,0.3,0.09,0.58,0.09l0,0.21l-2.71,0l0,-0.21c0.29,0,0.5,-0.03,0.61,-0.1c0.11,-0.07,0.18,-0.17,0.23,-0.31c0.01,-0.06,0.02,-0.25,0.02,-0.57l0,-2.3c0,-0.43,-0.06,-0.75,-0.19,-0.94c-0.17,-0.25,-0.41,-0.37,-0.72,-0.37c-0.21,0,-0.41,0.05,-0.62,0.17c-0.32,0.17,-0.57,0.36,-0.75,0.57l0,2.87c0,0.35,0.02,0.57,0.07,0.68c0.04,0.1,0.12,0.18,0.21,0.23c0.09,0.05,0.29,0.07,0.58,0.07l0,0.21l-2.65,0l0,-0.21c0.24,0,0.41,-0.02,0.51,-0.07c0.09,-0.05,0.17,-0.13,0.22,-0.25c0.05,-0.11,0.07,-0.33,0.07,-0.67l0,-2.05c0,-0.58,-0.01,-0.97,-0.05,-1.14c-0.02,-0.12,-0.07,-0.21,-0.12,-0.26c-0.05,-0.04,-0.13,-0.07,-0.24,-0.07c-0.1,0,-0.24,0.02,-0.39,0.08l-0.08,-0.21l1.61,-0.65l0.25,0l0,1.14m8.64,1.03c0,0.79,0.18,1.42,0.57,1.87c0.39,0.45,0.84,0.67,1.37,0.67c0.35,0,0.65,-0.09,0.91,-0.29c0.25,-0.19,0.47,-0.52,0.65,-0.99l0.18,0.11c-0.08,0.53,-0.31,1.02,-0.71,1.46c-0.39,0.43,-0.88,0.65,-1.48,0.65c-0.64,0,-1.19,-0.25,-1.65,-0.75c-0.45,-0.5,-0.68,-1.17,-0.68,-2.02c0,-0.91,0.23,-1.63,0.7,-2.14c0.47,-0.51,1.06,-0.77,1.77,-0.77c0.6,0,1.09,0.19,1.48,0.59c0.38,0.39,0.57,0.92,0.57,1.59l-3.7,0m0,-0.34l2.48,0c-0.01,-0.34,-0.06,-0.58,-0.12,-0.72c-0.09,-0.21,-0.24,-0.39,-0.43,-0.51c-0.19,-0.12,-0.39,-0.18,-0.6,-0.18c-0.32,0,-0.61,0.12,-0.86,0.37c-0.25,0.25,-0.4,0.6,-0.44,1.05m10.89,-1.83l0,1.82l-0.19,0c-0.14,-0.57,-0.33,-0.96,-0.57,-1.17c-0.23,-0.2,-0.52,-0.31,-0.88,-0.31c-0.27,0,-0.49,0.07,-0.66,0.21c-0.16,0.14,-0.25,0.3,-0.25,0.48c0,0.21,0.06,0.4,0.18,0.56c0.12,0.16,0.36,0.33,0.73,0.5l0.85,0.41c0.79,0.38,1.18,0.89,1.18,1.52c0,0.48,-0.18,0.88,-0.55,1.18c-0.36,0.29,-0.78,0.44,-1.23,0.44c-0.32,0,-0.7,-0.05,-1.12,-0.17c-0.12,-0.03,-0.23,-0.05,-0.31,-0.05c-0.08,0,-0.15,0.05,-0.21,0.15l-0.19,0l0,-1.91l0.19,0c0.1,0.54,0.31,0.95,0.62,1.23c0.3,0.27,0.65,0.41,1.03,0.41c0.26,0,0.48,-0.07,0.65,-0.23c0.16,-0.15,0.25,-0.34,0.25,-0.57c0,-0.26,-0.09,-0.49,-0.28,-0.67c-0.18,-0.18,-0.56,-0.41,-1.13,-0.69c-0.56,-0.28,-0.93,-0.53,-1.11,-0.76c-0.17,-0.22,-0.26,-0.5,-0.26,-0.84c0,-0.44,0.15,-0.8,0.45,-1.1c0.3,-0.29,0.69,-0.44,1.17,-0.44c0.21,0,0.46,0.04,0.76,0.13c0.19,0.05,0.33,0.08,0.39,0.08c0.06,0,0.11,-0.01,0.14,-0.04c0.03,-0.02,0.07,-0.08,0.12,-0.18l0.19,0m2.75,-1.6l0,1.76l1.25,0l0,0.4l-1.25,0l0,3.48c0,0.34,0.04,0.58,0.14,0.7c0.09,0.12,0.22,0.18,0.38,0.18c0.12,0,0.25,-0.04,0.37,-0.12c0.12,-0.08,0.21,-0.19,0.28,-0.35l0.22,0c-0.13,0.38,-0.32,0.67,-0.57,0.86c-0.25,0.19,-0.5,0.28,-0.77,0.28c-0.18,0,-0.35,-0.04,-0.52,-0.14c-0.17,-0.09,-0.29,-0.24,-0.38,-0.42c-0.08,-0.18,-0.12,-0.47,-0.12,-0.85l0,-3.6l-0.85,0l0,-0.19c0.21,-0.08,0.43,-0.23,0.65,-0.43c0.22,-0.2,0.42,-0.44,0.6,-0.72c0.09,-0.14,0.21,-0.41,0.37,-0.81l0.18,0m2.67,3.78c0,0.79,0.18,1.42,0.57,1.87c0.39,0.45,0.84,0.67,1.37,0.67c0.35,0,0.65,-0.09,0.91,-0.29c0.25,-0.19,0.47,-0.52,0.65,-0.99l0.18,0.11c-0.08,0.53,-0.31,1.02,-0.71,1.46c-0.39,0.43,-0.88,0.65,-1.48,0.65c-0.64,0,-1.19,-0.25,-1.65,-0.75c-0.45,-0.5,-0.68,-1.17,-0.68,-2.02c0,-0.91,0.23,-1.63,0.7,-2.14c0.47,-0.51,1.06,-0.77,1.77,-0.77c0.6,0,1.09,0.19,1.48,0.59c0.38,0.39,0.57,0.92,0.57,1.59l-3.7,0m0,-0.34l2.48,0c-0.01,-0.34,-0.06,-0.58,-0.12,-0.72c-0.09,-0.21,-0.24,-0.39,-0.43,-0.51c-0.19,-0.12,-0.39,-0.18,-0.6,-0.18c-0.32,0,-0.61,0.12,-0.86,0.37c-0.25,0.25,-0.4,0.6,-0.44,1.05m4.03,-1.14l1.65,-0.66l0.22,0l0,1.25c0.27,-0.47,0.55,-0.8,0.83,-0.99c0.27,-0.18,0.57,-0.28,0.88,-0.28c0.53,0,0.98,0.21,1.34,0.63c0.44,0.51,0.66,1.18,0.66,2.01c0,0.92,-0.26,1.69,-0.79,2.29c-0.43,0.49,-0.98,0.74,-1.65,0.74c-0.28,0,-0.53,-0.04,-0.75,-0.12c-0.15,-0.05,-0.33,-0.17,-0.52,-0.35l0,1.63c0,0.36,0.02,0.59,0.06,0.69c0.04,0.09,0.12,0.17,0.23,0.23c0.11,0.05,0.31,0.08,0.6,0.08l0,0.21l-2.81,0l0,-0.21l0.14,0c0.21,0,0.39,-0.03,0.55,-0.12c0.07,-0.04,0.13,-0.11,0.17,-0.2c0.04,-0.09,0.06,-0.33,0.06,-0.72l0,-5.07c0,-0.34,-0.01,-0.56,-0.04,-0.66c-0.03,-0.09,-0.08,-0.16,-0.14,-0.21c-0.06,-0.04,-0.16,-0.07,-0.27,-0.07c-0.09,0,-0.21,0.02,-0.35,0.08l-0.07,-0.18m1.87,0.93l0,2c0,0.43,0.01,0.71,0.05,0.85c0.05,0.22,0.18,0.42,0.4,0.59c0.21,0.17,0.48,0.25,0.8,0.25c0.39,0,0.7,-0.15,0.94,-0.45c0.31,-0.39,0.47,-0.95,0.47,-1.68c0,-0.81,-0.17,-1.45,-0.53,-1.89c-0.25,-0.3,-0.54,-0.45,-0.89,-0.45c-0.18,0,-0.37,0.04,-0.55,0.14c-0.14,0.07,-0.37,0.28,-0.69,0.63" fill="#000000" stroke="none" fill-opacity="1"/>
<path d="m41.04,270.69l1.72,-0.84l0.17,0l0,5.98c0,0.39,0.01,0.64,0.05,0.74c0.03,0.09,0.1,0.17,0.2,0.22c0.1,0.05,0.31,0.08,0.63,0.08l0,0.19l-2.66,0l0,-0.19c0.33,0,0.55,-0.03,0.64,-0.08c0.09,-0.05,0.16,-0.11,0.2,-0.2c0.03,-0.08,0.05,-0.34,0.05,-0.76l0,-3.82c0,-0.51,-0.01,-0.84,-0.05,-0.99c-0.02,-0.11,-0.06,-0.19,-0.13,-0.24c-0.06,-0.05,-0.14,-0.07,-0.23,-0.07c-0.12,0,-0.3,0.05,-0.53,0.16l-0.07,-0.16" fill="#000000" stroke="none" fill-opacity="1"/>
<path d="m80.38,270.69l1.72,-0.84l0.17,0l0,5.98c0,0.39,0.01,0.64,0.05,0.74c0.03,0.09,0.1,0.17,0.2,0.22c0.1,0.05,0.31,0.08,0.63,0.08l0,0.19l-2.66,0l0,-0.19c0.33,0,0.55,-0.03,0.64,-0.08c0.09,-0.05,0.16,-0.11,0.2,-0.2c0.03,-0.08,0.05,-0.34,0.05,-0.76l0,-3.82c0,-0.51,-0.01,-0.84,-0.05,-0.99c-0.02,-0.11,-0.06,-0.19,-0.13,-0.24c-0.06,-0.05,-0.14,-0.07,-0.23,-0.07c-0.12,0,-0.3,0.05,-0.53,0.16l-0.07,-0.16m4.48,2.88c0,-0.8,0.12,-1.5,0.36,-2.08c0.24,-0.58,0.56,-1.01,0.97,-1.3c0.31,-0.22,0.63,-0.34,0.97,-0.34c0.54,0,1.03,0.27,1.46,0.83c0.53,0.68,0.8,1.61,0.8,2.78c0,0.82,-0.11,1.52,-0.35,2.09c-0.23,0.57,-0.53,0.99,-0.9,1.25c-0.36,0.25,-0.72,0.38,-1.06,0.38c-0.67,0,-1.23,-0.39,-1.68,-1.19c-0.38,-0.67,-0.57,-1.48,-0.57,-2.42m1.02,0.12c0,0.97,0.12,1.77,0.36,2.38c0.19,0.51,0.49,0.77,0.88,0.77c0.18,0,0.38,-0.08,0.58,-0.25c0.2,-0.16,0.35,-0.45,0.46,-0.84c0.16,-0.59,0.24,-1.44,0.24,-2.53c0,-0.8,-0.08,-1.48,-0.25,-2.02c-0.12,-0.4,-0.28,-0.68,-0.48,-0.85c-0.14,-0.11,-0.31,-0.17,-0.51,-0.17c-0.23,0,-0.44,0.1,-0.63,0.31c-0.25,0.28,-0.42,0.74,-0.51,1.36c-0.09,0.62,-0.13,1.23,-0.13,1.83" fill="#000000" stroke="none" fill-opacity="1"/>
<path d="m130.72,275.72l-0.49,1.36l-4.17,0l0,-0.19c1.22,-1.12,2.09,-2.03,2.59,-2.74c0.5,-0.71,0.75,-1.36,0.75,-1.94c0,-0.44,-0.13,-0.81,-0.41,-1.1c-0.27,-0.28,-0.6,-0.43,-0.98,-0.43c-0.34,0,-0.66,0.1,-0.93,0.3c-0.27,0.2,-0.48,0.5,-0.61,0.89l-0.19,0c0.08,-0.64,0.3,-1.13,0.67,-1.48c0.36,-0.34,0.81,-0.51,1.35,-0.51c0.57,0,1.05,0.18,1.43,0.55c0.38,0.36,0.57,0.8,0.57,1.3c0,0.35,-0.08,0.71,-0.25,1.07c-0.25,0.56,-0.67,1.16,-1.25,1.79c-0.86,0.94,-1.4,1.51,-1.62,1.71l1.85,0c0.37,0,0.63,-0.01,0.79,-0.04c0.15,-0.02,0.28,-0.08,0.41,-0.16c0.12,-0.08,0.22,-0.2,0.31,-0.36l0.19,0m0.82,-2.13c0,-0.8,0.12,-1.5,0.36,-2.08c0.24,-0.58,0.56,-1.01,0.97,-1.3c0.31,-0.22,0.63,-0.34,0.97,-0.34c0.54,0,1.03,0.27,1.46,0.83c0.53,0.68,0.8,1.61,0.8,2.78c0,0.82,-0.11,1.52,-0.35,2.09c-0.23,0.57,-0.53,0.99,-0.9,1.25c-0.36,0.25,-0.72,0.38,-1.06,0.38c-0.67,0,-1.23,-0.39,-1.68,-1.19c-0.38,-0.67,-0.57,-1.48,-0.57,-2.42m1.02,0.12c0,0.97,0.12,1.77,0.36,2.38c0.19,0.51,0.49,0.77,0.88,0.77c0.18,0,0.38,-0.08,0.58,-0.25c0.2,-0.16,0.35,-0.45,0.46,-0.84c0.16,-0.59,0.24,-1.44,0.24,-2.53c0,-0.8,-0.08,-1.48,-0.25,-2.02c-0.12,-0.4,-0.28,-0.68,-0.48,-0.85c-0.14,-0.11,-0.31,-0.17,-0.51,-0.17c-0.23,0,-0.44,0.1,-0.63,0.31c-0.25,0.28,-0.42,0.74,-0.51,1.36c-0.09,0.62,-0.13,1.23,-0.13,1.83" fill="#000000" stroke="none" fill-opacity="1"/>
<path d="m173.05,271.35c0.2,-0.47,0.45,-0.84,0.76,-1.1c0.3,-0.25,0.69,-0.38,1.15,-0.38c0.56,0,1,0.18,1.3,0.55c0.23,0.27,0.34,0.56,0.34,0.88c0,0.51,-0.32,1.04,-0.97,1.59c0.43,0.17,0.76,0.41,0.98,0.73c0.22,0.31,0.33,0.68,0.33,1.11c0,0.61,-0.19,1.14,-0.58,1.59c-0.5,0.58,-1.24,0.87,-2.2,0.87c-0.47,0,-0.8,-0.05,-0.97,-0.17c-0.17,-0.11,-0.25,-0.24,-0.25,-0.38c0,-0.1,0.04,-0.18,0.12,-0.26c0.08,-0.07,0.17,-0.11,0.29,-0.11c0.08,0,0.17,0.01,0.26,0.04c0.05,0.01,0.19,0.08,0.4,0.19c0.2,0.1,0.35,0.17,0.43,0.19c0.12,0.03,0.26,0.05,0.41,0.05c0.35,0,0.66,-0.13,0.92,-0.41c0.26,-0.27,0.39,-0.6,0.39,-0.97c0,-0.27,-0.06,-0.54,-0.18,-0.8c-0.09,-0.19,-0.19,-0.34,-0.29,-0.44c-0.15,-0.13,-0.35,-0.26,-0.61,-0.37c-0.26,-0.11,-0.52,-0.16,-0.79,-0.16l-0.16,0l0,-0.15c0.27,-0.03,0.55,-0.13,0.82,-0.29c0.27,-0.16,0.47,-0.36,0.6,-0.59c0.12,-0.23,0.18,-0.48,0.18,-0.75c0,-0.35,-0.11,-0.64,-0.33,-0.86c-0.22,-0.22,-0.5,-0.33,-0.83,-0.33c-0.53,0,-0.99,0.28,-1.35,0.86l-0.17,-0.08m5.19,2.23c0,-0.8,0.12,-1.5,0.36,-2.08c0.24,-0.58,0.56,-1.01,0.97,-1.3c0.31,-0.22,0.63,-0.34,0.97,-0.34c0.54,0,1.03,0.27,1.46,0.83c0.53,0.68,0.8,1.61,0.8,2.78c0,0.82,-0.11,1.52,-0.35,2.09c-0.23,0.57,-0.53,0.99,-0.9,1.25c-0.36,0.25,-0.72,0.38,-1.06,0.38c-0.67,0,-1.23,-0.39,-1.68,-1.19c-0.38,-0.67,-0.57,-1.48,-0.57,-2.42m1.02,0.12c0,0.97,0.12,1.77,0.36,2.38c0.19,0.51,0.49,0.77,0.88,0.77c0.18,0,0.38,-0.08,0.58,-0.25c0.2,-0.16,0.35,-0.45,0.46,-0.84c0.16,-0.59,0.24,-1.44,0.24,-2.53c0,-0.8,-0.08,-1.48,-0.25,-2.02c-0.12,-0.4,-0.28,-0.68,-0.48,-0.85c-0.14,-0.11,-0.31,-0.17,-0.51,-0.17c-0.23,0,-0.44,0.1,-0.63,0.31c-0.25,0.28,-0.42,0.74,-0.51,1.36c-0.09,0.62,-0.13,1.23,-0.13,1.83" fill="#000000" stroke="none" fill-opacity="1"/>
<path d="m224.17,274.47l0,0.74l-0.95,0l0,1.87l-0.86,0l0,-1.87l-2.99,0l0,-0.66l3.28,-4.69l0.57,0l0,4.61l0.95,0m-1.81,0l0,-3.51l-2.48,3.51l2.48,0m2.57,-0.88c0,-0.8,0.12,-1.5,0.36,-2.08c0.24,-0.58,0.56,-1.01,0.97,-1.3c0.31,-0.22,0.63,-0.34,0.97,-0.34c0.54,0,1.03,0.27,1.46,0.83c0.53,0.68,0.8,1.61,0.8,2.78c0,0.82,-0.11,1.52,-0.35,2.09c-0.23,0.57,-0.53,0.99,-0.9,1.25c-0.36,0.25,-0.72,0.38,-1.06,0.38c-0.67,0,-1.23,-0.39,-1.68,-1.19c-0.38,-0.67,-0.57,-1.48,-0.57,-2.42m1.02,0.12c0,0.97,0.12,1.77,0.36,2.38c0.19,0.51,0.49,0.77,0.88,0.77c0.18,0,0.38,-0.08,0.58,-0.25c0.2,-0.16,0.35,-0.45,0.46,-0.84c0.16,-0.59,0.24,-1.44,0.24,-2.53c0,-0.8,-0.08,-1.48,-0.25,-2.02c-0.12,-0.4,-0.28,-0.68,-0.48,-0.85c-0.14,-0.11,-0.31,-0.17,-0.51,-0.17c-0.23,0,-0.44,0.1,-0.63,0.31c-0.25,0.28,-0.42,0.74,-0.51,1.36c-0.09,0.62,-0.13,1.23,-0.13,1.83" fill="#000000" stroke="none" fill-opacity="1"/>
<path d="m270.53,270l-0.4,0.88l-2.13,0l-0.46,0.95c0.92,0.13,1.65,0.47,2.19,1.02c0.46,0.47,0.69,1.03,0.69,1.67c0,0.37,-0.07,0.71,-0.22,1.03c-0.15,0.31,-0.34,0.58,-0.57,0.81c-0.22,0.22,-0.48,0.4,-0.76,0.53c-0.4,0.19,-0.81,0.28,-1.23,0.28c-0.42,0,-0.73,-0.07,-0.92,-0.21c-0.19,-0.14,-0.28,-0.3,-0.28,-0.47c0,-0.09,0.04,-0.18,0.12,-0.25c0.08,-0.07,0.18,-0.11,0.3,-0.11c0.08,0,0.16,0.01,0.23,0.04c0.06,0.02,0.18,0.09,0.34,0.21c0.26,0.18,0.52,0.27,0.79,0.27c0.4,0,0.76,-0.15,1.07,-0.46c0.3,-0.3,0.46,-0.68,0.46,-1.12c0,-0.42,-0.13,-0.82,-0.41,-1.19c-0.27,-0.37,-0.65,-0.65,-1.13,-0.85c-0.37,-0.15,-0.89,-0.24,-1.55,-0.27l1.35,-2.75l2.53,0m1.09,3.58c0,-0.8,0.12,-1.5,0.36,-2.08c0.24,-0.58,0.56,-1.01,0.97,-1.3c0.31,-0.22,0.63,-0.34,0.97,-0.34c0.54,0,1.03,0.27,1.46,0.83c0.53,0.68,0.8,1.61,0.8,2.78c0,0.82,-0.11,1.52,-0.35,2.09c-0.23,0.57,-0.53,0.99,-0.9,1.25c-0.36,0.25,-0.72,0.38,-1.06,0.38c-0.67,0,-1.23,-0.39,-1.68,-1.19c-0.38,-0.67,-0.57,-1.48,-0.57,-2.42m1.02,0.12c0,0.97,0.12,1.77,0.36,2.38c0.19,0.51,0.49,0.77,0.88,0.77c0.18,0,0.38,-0.08,0.58,-0.25c0.2,-0.16,0.35,-0.45,0.46,-0.84c0.16,-0.59,0.24,-1.44,0.24,-2.53c0,-0.8,-0.08,-1.48,-0.25,-2.02c-0.12,-0.4,-0.28,-0.68,-0.48,-0.85c-0.14,-0.11,-0.31,-0.17,-0.51,-0.17c-0.23,0,-0.44,0.1,-0.63,0.31c-0.25,0.28,-0.42,0.74,-0.51,1.36c-0.09,0.62,-0.13,1.23,-0.13,1.83" fill="#000000" stroke="none" fill-opacity="1"/>
</g>
</g>
</g>
</svg>
